<?xml version="1.0" encoding="UTF-8" standalone="no"?>
<svg width="48px" height="48px" viewBox="0 0 48 48" version="1.1" xmlns="http://www.w3.org/2000/svg" xmlns:xlink="http://www.w3.org/1999/xlink" xmlns:sketch="http://www.bohemiancoding.com/sketch/ns">
    <!-- Generator: Sketch 3.3.2 (12043) - http://www.bohemiancoding.com/sketch -->
    <title>calendar</title>
    <desc>Created with Sketch.</desc>
    <defs></defs>
    <g id="Page-1" stroke="none" stroke-width="1" fill="none" fill-rule="evenodd" sketch:type="MSPage">
        <g id="calendar" sketch:type="MSArtboardGroup">
            <circle id="Oval-1" opacity="0.95" fill="#FFFFFF" sketch:type="MSShapeGroup" cx="24" cy="24" r="24"></circle>
            <path d="M26.4706441,24.6667022 L21.5290396,24.6667022 L21.5290396,28.0001067 L26.4703277,28.0001067 L26.4703277,24.6667022 L26.4706441,24.6667022 Z M26.4706441,19.6665955 L21.5290396,19.6665955 L21.5290396,23 L26.4703277,23 L26.4703277,19.6665955 L26.4706441,19.6665955 Z M33.0587119,24.6667022 L28.1177401,24.6667022 L28.1177401,28.0001067 L33.0587119,28.0001067 L33.0587119,24.6667022 L33.0587119,24.6667022 Z M26.4706441,29.6664888 L21.5290396,29.6664888 L21.5290396,32.9998933 L26.4703277,32.9998933 L26.4703277,29.6664888 L26.4706441,29.6664888 Z M33.0587119,19.6665955 L28.1177401,19.6665955 L28.1177401,23 L33.0587119,23 L33.0587119,19.6665955 L33.0587119,19.6665955 Z M19.8822599,19.6665955 L14.9409718,19.6665955 L14.9409718,23 L19.8822599,23 L19.8822599,19.6665955 L19.8822599,19.6665955 Z M19.8822599,29.6664888 L14.9409718,29.6664888 L14.9409718,32.9998933 L19.8822599,32.9998933 L19.8822599,29.6664888 L19.8822599,29.6664888 Z M33.0587119,11.3334045 L33.0587119,8 L29.7645198,8 L29.7645198,14.6668089 L28.1177401,14.6668089 L28.1177401,11.3334045 L19.8822599,11.3334045 L19.8822599,8 L16.5880678,8 L16.5880678,14.6668089 L14.9409718,14.6668089 L14.9409718,11.3334045 L10,11.3334045 L10,38 L38,38 L38,11.3334045 L33.0587119,11.3334045 L33.0587119,11.3334045 Z M34.7058079,34.6665955 L13.2938758,34.6665955 L13.2938758,17.9998933 L34.7054916,17.9998933 L34.7054916,34.6665955 L34.7058079,34.6665955 Z M19.8822599,24.6667022 L14.9409718,24.6667022 L14.9409718,28.0001067 L19.8822599,28.0001067 L19.8822599,24.6667022 L19.8822599,24.6667022 Z M33.0587119,29.6664888 L28.1177401,29.6664888 L28.1177401,32.9998933 L33.0587119,32.9998933 L33.0587119,29.6664888 L33.0587119,29.6664888 Z" id="Shape" fill="#9C85F0" sketch:type="MSShapeGroup"></path>
        </g>
    </g>
</svg>