<?xml version="1.0" encoding="UTF-8" standalone="no"?>
<svg width="192px" height="144px" viewBox="0 0 192 144" version="1.1" xmlns="http://www.w3.org/2000/svg" xmlns:xlink="http://www.w3.org/1999/xlink" xmlns:sketch="http://www.bohemiancoding.com/sketch/ns">
    <!-- Generator: Sketch 3.4.2 (15855) - http://www.bohemiancoding.com/sketch -->
    <title>columns</title>
    <desc>Created with Sketch.</desc>
    <defs></defs>
    <g id="Page-1" stroke="none" stroke-width="1" fill="none" fill-rule="evenodd" sketch:type="MSPage">
        <g id="columns" sketch:type="MSArtboardGroup" stroke="#3A4860" stroke-width="2" fill="#FFFFFF">
            <rect id="Rectangle-307" sketch:type="MSShapeGroup" x="1" y="27" width="90" height="16"></rect>
            <rect id="Rectangle-307-Copy" sketch:type="MSShapeGroup" x="101" y="27" width="90" height="16"></rect>
            <rect id="Rectangle-307-Copy-5" sketch:type="MSShapeGroup" x="1" y="52" width="40" height="16"></rect>
            <rect id="Rectangle-307-Copy-6" sketch:type="MSShapeGroup" x="1" y="77" width="24" height="16"></rect>
            <rect id="Rectangle-307-Copy-8" sketch:type="MSShapeGroup" x="1" y="127" width="24" height="16"></rect>
            <rect id="Rectangle-307-Copy-7" sketch:type="MSShapeGroup" x="35" y="77" width="23" height="16"></rect>
            <rect id="Rectangle-307-Copy-17" sketch:type="MSShapeGroup" x="68" y="77" width="23" height="16"></rect>
            <rect id="Rectangle-307-Copy-20" sketch:type="MSShapeGroup" transform="translate(179.000000, 85.000000) scale(-1, 1) translate(-179.000000, -85.000000) " x="167" y="77" width="24" height="16"></rect>
            <rect id="Rectangle-307-Copy-23" sketch:type="MSShapeGroup" transform="translate(179.000000, 135.000000) scale(-1, 1) translate(-179.000000, -135.000000) " x="167" y="127" width="24" height="16"></rect>
            <rect id="Rectangle-307-Copy-19" sketch:type="MSShapeGroup" transform="translate(145.500000, 85.000000) scale(-1, 1) translate(-145.500000, -85.000000) " x="134" y="77" width="23" height="16"></rect>
            <rect id="Rectangle-307-Copy-18" sketch:type="MSShapeGroup" transform="translate(112.500000, 85.000000) scale(-1, 1) translate(-112.500000, -85.000000) " x="101" y="77" width="23" height="16"></rect>
            <rect id="Rectangle-307-Copy-14" sketch:type="MSShapeGroup" x="51" y="52" width="40" height="16"></rect>
            <rect id="Rectangle-307-Copy-15" sketch:type="MSShapeGroup" x="101" y="52" width="40" height="16"></rect>
            <rect id="Rectangle-307-Copy-16" sketch:type="MSShapeGroup" x="151" y="52" width="40" height="16"></rect>
            <rect id="Rectangle-307-Copy-22" sketch:type="MSShapeGroup" x="101" y="102" width="40" height="16"></rect>
            <rect id="Rectangle-307-Copy-21" sketch:type="MSShapeGroup" x="151" y="102" width="40" height="16"></rect>
            <rect id="Rectangle-307-Copy-9" sketch:type="MSShapeGroup" x="1" y="102" width="90" height="16"></rect>
            <rect id="Rectangle-307-Copy-10" sketch:type="MSShapeGroup" x="35" y="127" width="122" height="16"></rect>
            <rect id="Rectangle-307-Copy-3" sketch:type="MSShapeGroup" x="1" y="1" width="57" height="16"></rect>
            <rect id="Rectangle-307-Copy-12" sketch:type="MSShapeGroup" x="68" y="1" width="56" height="16"></rect>
            <rect id="Rectangle-307-Copy-13" sketch:type="MSShapeGroup" x="134" y="1" width="57" height="16"></rect>
        </g>
    </g>
</svg>