<?xml version="1.0" encoding="UTF-8" standalone="no"?>
<svg width="192px" height="144px" viewBox="0 0 192 144" version="1.1" xmlns="http://www.w3.org/2000/svg" xmlns:xlink="http://www.w3.org/1999/xlink" xmlns:sketch="http://www.bohemiancoding.com/sketch/ns">
    <!-- Generator: Sketch 3.4.2 (15855) - http://www.bohemiancoding.com/sketch -->
    <title>golden_rectangle</title>
    <desc>Created with Sketch.</desc>
    <defs></defs>
    <g id="Page-1" stroke="none" stroke-width="1" fill="none" fill-rule="evenodd" sketch:type="MSPage">
        <g id="golden_rectangle" sketch:type="MSArtboardGroup" stroke="#3A4860">
            <rect id="Rectangle-1" stroke-width="2" fill="#FFFFFF" sketch:type="MSShapeGroup" x="1" y="11" width="190" height="126"></rect>
            <rect id="Rectangle-1-Copy" stroke-width="2" fill="#FFFFFF" sketch:type="MSShapeGroup" x="5" y="15" width="182" height="118"></rect>
            <rect id="Rectangle-1-Copy-2" stroke-width="2" sketch:type="MSShapeGroup" x="117.073684" y="15" width="69.9263158" height="118"></rect>
            <rect id="Rectangle-1-Copy-3" stroke-width="2" sketch:type="MSShapeGroup" x="117.073684" y="88" width="69.9263158" height="45"></rect>
            <rect id="Rectangle-1-Copy-4" stroke-width="2" sketch:type="MSShapeGroup" x="117.073684" y="88" width="26.8210526" height="45"></rect>
            <rect id="Rectangle-1-Copy-5" stroke-width="2" sketch:type="MSShapeGroup" x="117.073684" y="88" width="26.8210526" height="17"></rect>
            <rect id="Rectangle-1-Copy-6" stroke-width="2" sketch:type="MSShapeGroup" x="133.357895" y="88" width="10.5368421" height="17"></rect>
            <rect id="Rectangle-1-Copy-7" stroke-width="2" sketch:type="MSShapeGroup" x="133.357895" y="98" width="10.5368421" height="7"></rect>
            <rect id="Rectangle-1-Copy-8" stroke-width="2" sketch:type="MSShapeGroup" x="133.357895" y="98" width="3.83157895" height="7"></rect>
            <rect id="Rectangle-1-Copy-9" stroke-width="2" sketch:type="MSShapeGroup" x="133.357895" y="98" width="3.83157895" height="3"></rect>
            <rect id="Rectangle-1-Copy-10" stroke-width="2" sketch:type="MSShapeGroup" x="135.273684" y="98" width="1.91578947" height="3"></rect>
            <path d="M5,133 C5.00000879,67.8303965 55.1771039,14.9999996 117.073684,15" id="path1873" stroke-width="2.00231258" sketch:type="MSShapeGroup"></path>
            <path d="M187,88 C186.999995,47.6832114 155.692918,14.9999997 117.073684,15" id="path1875" stroke-width="2.00231257" sketch:type="MSShapeGroup"></path>
            <path d="M186.947368,89.9473684 C186.947365,113.753749 166.80018,133.052632 141.947368,133.052632" id="path2762" stroke-width="2.00231253" sketch:type="MSShapeGroup"></path>
            <path d="M117.073684,105 C117.073686,120.463974 129.08188,133 143.894737,133" id="path2764" stroke-width="2.00231267" sketch:type="MSShapeGroup"></path>
            <path d="M117.073684,105 C117.073685,95.6111588 124.364375,87.9999999 133.357895,88" id="path2766" stroke-width="2.00231271" sketch:type="MSShapeGroup"></path>
            <path d="M143.894737,99 C143.894736,92.9248675 139.177231,88 133.357895,88" id="path2768" stroke-width="2.00231298" sketch:type="MSShapeGroup"></path>
            <path d="M143.894737,99 C143.894736,102.313709 141.321552,105 138.147368,105" id="path2770" stroke-width="2.00231325" sketch:type="MSShapeGroup"></path>
            <path d="M133.357895,101 C133.357895,103.209139 135.073351,105 137.189474,105" id="path2772" stroke-width="2.00231327" sketch:type="MSShapeGroup"></path>
            <path d="M133.357895,101 C133.357895,99.8954304 134.215623,99 135.273684,99" id="path2774" stroke-width="2.0023133" sketch:type="MSShapeGroup"></path>
        </g>
    </g>
</svg>