<?xml version="1.0" encoding="UTF-8" standalone="no"?>
<svg width="48px" height="48px" viewBox="0 0 48 48" version="1.1" xmlns="http://www.w3.org/2000/svg" xmlns:xlink="http://www.w3.org/1999/xlink" xmlns:sketch="http://www.bohemiancoding.com/sketch/ns">
    <!-- Generator: Sketch 3.3.2 (12043) - http://www.bohemiancoding.com/sketch -->
    <title>grid</title>
    <desc>Created with Sketch.</desc>
    <defs></defs>
    <g id="Page-1" stroke="none" stroke-width="1" fill="none" fill-rule="evenodd" sketch:type="MSPage">
        <g id="grid" sketch:type="MSArtboardGroup">
            <circle id="Oval-1" opacity="0.95" fill="#FFFFFF" sketch:type="MSShapeGroup" cx="24" cy="24" r="24"></circle>
            <path d="M36.5,20.875 L36.5,17.75 L30.25,17.75 L30.25,11.5 L27.125,11.5 L27.125,17.75 L20.875,17.75 L20.875,11.5 L17.75,11.5 L17.75,17.75 L11.5,17.75 L11.5,20.875 L17.75,20.875 L17.75,27.125 L11.5,27.125 L11.5,30.25 L17.75,30.25 L17.75,36.5 L20.875,36.5 L20.875,30.25 L27.125,30.25 L27.125,36.5 L30.25,36.5 L30.25,30.25 L36.5,30.25 L36.5,27.125 L30.25,27.125 L30.25,20.875 L36.5,20.875 L36.5,20.875 Z M27.125,27.125 L20.875,27.125 L20.875,20.875 L27.125,20.875 L27.125,27.125 L27.125,27.125 Z" id="Shape" stroke="#9C85F0" stroke-width="0.25" fill="#9C85F0" sketch:type="MSShapeGroup"></path>
        </g>
    </g>
</svg>