<?xml version="1.0" encoding="UTF-8" standalone="no"?>
<svg width="48px" height="48px" viewBox="0 0 48 48" version="1.1" xmlns="http://www.w3.org/2000/svg" xmlns:xlink="http://www.w3.org/1999/xlink" xmlns:sketch="http://www.bohemiancoding.com/sketch/ns">
    <!-- Generator: Sketch 3.3.2 (12043) - http://www.bohemiancoding.com/sketch -->
    <title>ie</title>
    <desc>Created with Sketch.</desc>
    <defs></defs>
    <g id="Page-1" stroke="none" stroke-width="1" fill="none" fill-rule="evenodd" sketch:type="MSPage">
        <g id="ie" sketch:type="MSArtboardGroup">
            <circle id="Oval-1" opacity="0.95" fill="#FFFFFF" sketch:type="MSShapeGroup" cx="24" cy="24" r="24"></circle>
            <path d="M37.1720958,24.1559654 C37.1720958,21.9020157 36.5793665,19.7844879 35.5399622,17.944453 C39.9703673,8.08634553 30.7927231,9.53026545 30.2817356,9.62856358 C28.3373618,10.0026278 26.5385019,10.6031763 24.8792111,11.3644555 C24.6345262,11.3509063 24.388355,11.3434675 24.1402923,11.3434675 C17.9477773,11.3434675 12.7642668,15.589947 11.4376178,21.2826046 C14.7014797,17.6826346 16.9856561,16.2300804 18.3535138,15.6487931 C18.1351754,15.8406073 17.9214308,16.0345468 17.711199,16.2299476 C17.6412118,16.2949041 17.5737917,16.3607904 17.5047503,16.4261453 C17.366127,16.5572538 17.227774,16.6884951 17.0926636,16.8209319 C17.0122729,16.8997033 16.934044,16.9791388 16.8548693,17.0584415 C16.7350264,17.1783918 16.6154537,17.2982092 16.498448,17.4188237 C16.4153551,17.5045025 16.3342889,17.5904469 16.2526822,17.6762585 C16.1433779,17.7912939 16.0347491,17.9064621 15.928147,18.0220289 C15.8453244,18.1118255 15.7638528,18.2016222 15.6825163,18.2916846 C15.5814538,18.4035319 15.4813369,18.5153792 15.3825712,18.6274923 C15.3006943,18.720477 15.219493,18.8134617 15.1392374,18.9065793 C15.0456059,19.0152385 14.9531904,19.1238978 14.8617207,19.2325571 C14.7807895,19.3287299 14.7001286,19.4247698 14.6209539,19.5208098 C14.5352939,19.624687 14.4515255,19.7284314 14.3678921,19.8320429 C14.2868259,19.9324664 14.2057597,20.0327571 14.126585,20.1330478 C14.0511934,20.2285563 13.9779635,20.3236664 13.9041932,20.4189094 C13.8209652,20.526506 13.7370617,20.6341026 13.6559954,20.7411678 C13.5980331,20.8178138 13.5423676,20.8936628 13.4854861,20.9700431 C12.9705804,21.6607868 12.500126,22.3382469 12.0752037,22.9890071 C12.0741229,22.9906011 12.073042,22.9921952 12.0720962,22.9937892 C11.9602248,23.1651467 11.8522716,23.3339804 11.7464801,23.5013529 C11.7408055,23.5103857 11.7348606,23.5195514 11.729186,23.528717 C11.6232595,23.6967537 11.5209809,23.861868 11.4212694,24.0252554 C11.4177565,24.0309673 11.4141086,24.0368121 11.4105957,24.042524 C11.1425366,24.4823418 10.8939335,24.9063521 10.6700556,25.3052566 C9.49635153,27.396483 8.92496964,28.8575387 8.90024444,28.9442801 C5.19389593,41.9717055 16.761508,36.4703308 18.375672,35.6491428 C20.1137321,36.4933113 22.070401,36.9684632 24.1402923,36.9684632 C29.8068225,36.9684632 34.6279669,33.4123289 36.4225033,28.4462805 L29.5751082,28.4462805 C28.5619153,30.1291712 26.6113264,31.269031 24.3703853,31.269031 C21.0870675,31.269031 18.4255277,28.8232671 18.4255277,25.8061785 L37.0648181,25.8061785 C37.1354809,25.2658045 37.1720958,24.7150692 37.1720958,24.1559654 L37.1720958,24.1559654 Z M34.7376766,11.5477683 C35.8599036,12.2924431 36.7600091,13.4619252 35.214211,17.4003596 C33.7316445,15.0562147 31.5011069,13.2173754 28.8499707,12.2066314 C30.0559661,11.6339784 33.0425815,10.422786 34.7376766,11.5477683 L34.7376766,11.5477683 Z M10.8885291,35.6229743 C9.97450723,34.7013628 9.8129152,32.4567116 11.8298433,28.3664465 C12.847765,31.2437923 14.8790148,33.6547534 17.5044801,35.1848834 C16.1987732,35.8914345 12.7323807,37.4822702 10.8885291,35.6229743 L10.8885291,35.6229743 Z M18.3967492,22.3025142 C18.5009193,19.3701745 21.0966603,17.0223103 24.2859413,17.0223103 C27.4750872,17.0223103 30.0709634,19.3701745 30.1751335,22.3025142 L18.3967492,22.3025142 L18.3967492,22.3025142 Z" id="svg" fill="#9C85F0" sketch:type="MSShapeGroup"></path>
        </g>
    </g>
</svg>