<?xml version="1.0" encoding="UTF-8" standalone="no"?>
<svg width="24px" height="24px" viewBox="0 0 24 24" version="1.1" xmlns="http://www.w3.org/2000/svg" xmlns:xlink="http://www.w3.org/1999/xlink" xmlns:sketch="http://www.bohemiancoding.com/sketch/ns">
    <!-- Generator: Sketch 3.5.2 (25235) - http://www.bohemiancoding.com/sketch -->
    <title>logo</title>
    <desc>Created with Sketch.</desc>
    <defs></defs>
    <g id="Page-1" stroke="none" stroke-width="1" fill="none" fill-rule="evenodd" sketch:type="MSPage">
        <path d="M12,24 C18.627417,24 24,18.627417 24,12 C24,5.372583 18.627417,0 12,0 C5.372583,0 0,5.372583 0,12 C0,18.627417 5.372583,24 12,24 L12,24 Z M5,19 L19,19 L19,5 L5,5 L5,19 Z M17.5,9.25 L14.75,9.25 L14.75,6.5 L17.4998487,6.5 L17.4998487,9.25 L17.5,9.25 L17.5,9.25 Z M13.2498625,11.25 L10.75,11.25 L10.75,6.5 L13.25,6.5 L13.25,11.25 L13.2498625,11.25 L13.2498625,11.25 Z M6.5,13.25 L6.5,10.75 L9.25,10.75 L9.25,13.25 L6.5,13.25 Z M13.25,12.75 L13.25,17.5 L10.75,17.5 L10.75,12.75 L13.25,12.75 Z M14.75,10.75 L17.5,10.75 L17.5,13.25 L14.75,13.25 L14.75,10.75 L14.75,10.75 L14.75,10.75 Z M9.25,6.5 L9.25,9.25 L6.5,9.25 L6.5,6.5 L9.25,6.5 L9.25,6.5 L9.25,6.5 Z M6.5,14.75 L9.25,14.75 L9.25,17.5 L6.5,17.5 L6.5,14.75 L6.5,14.75 L6.5,14.75 Z M14.75,17.5 L14.75,14.75 L17.5,14.75 L17.5,17.5 L14.75,17.5 L14.75,17.5 L14.75,17.5 Z" id="Oval-1" fill="#917CDF" sketch:type="MSShapeGroup"></path>
    </g>
</svg>