<?xml version="1.0" encoding="UTF-8" standalone="no"?>
<svg width="192px" height="144px" viewBox="0 0 192 144" version="1.1" xmlns="http://www.w3.org/2000/svg" xmlns:xlink="http://www.w3.org/1999/xlink" xmlns:sketch="http://www.bohemiancoding.com/sketch/ns">
    <!-- Generator: Sketch 3.4.2 (15855) - http://www.bohemiancoding.com/sketch -->
    <title>minesweeper</title>
    <desc>Created with Sketch.</desc>
    <defs></defs>
    <g id="Page-1" stroke="none" stroke-width="1" fill="none" fill-rule="evenodd" sketch:type="MSPage">
        <g id="minesweeper" sketch:type="MSArtboardGroup" stroke="#3A4860" stroke-width="2">
            <g id="Group-Copy" sketch:type="MSLayerGroup" transform="translate(39.000000, 1.000000)">
                <rect id="Rectangle-2" fill="#FFFFFF" sketch:type="MSShapeGroup" x="0" y="0" width="118" height="142"></rect>
                <rect id="Rectangle-3" sketch:type="MSShapeGroup" x="4" y="5" width="110" height="17"></rect>
                <rect id="Rectangle-3-Copy-2" sketch:type="MSShapeGroup" x="4" y="27" width="11" height="11"></rect>
                <rect id="Rectangle-3-Copy-3" sketch:type="MSShapeGroup" x="15" y="27" width="11" height="11"></rect>
                <rect id="Rectangle-3-Copy-4" sketch:type="MSShapeGroup" x="26" y="27" width="11" height="11"></rect>
                <rect id="Rectangle-3-Copy-5" sketch:type="MSShapeGroup" x="37" y="27" width="11" height="11"></rect>
                <rect id="Rectangle-3-Copy-6" sketch:type="MSShapeGroup" x="48" y="27" width="11" height="11"></rect>
                <rect id="Rectangle-3-Copy-11" sketch:type="MSShapeGroup" x="59" y="27" width="11" height="11"></rect>
                <rect id="Rectangle-3-Copy-10" sketch:type="MSShapeGroup" x="70" y="27" width="11" height="11"></rect>
                <rect id="Rectangle-3-Copy-9" sketch:type="MSShapeGroup" x="81" y="27" width="11" height="11"></rect>
                <rect id="Rectangle-3-Copy-8" sketch:type="MSShapeGroup" x="92" y="27" width="11" height="11"></rect>
                <rect id="Rectangle-3-Copy-7" sketch:type="MSShapeGroup" x="103" y="27" width="11" height="11"></rect>
                <rect id="Rectangle-3-Copy-21" sketch:type="MSShapeGroup" x="4" y="38" width="11" height="11"></rect>
                <rect id="Rectangle-3-Copy-20" sketch:type="MSShapeGroup" x="15" y="38" width="11" height="11"></rect>
                <rect id="Rectangle-3-Copy-19" sketch:type="MSShapeGroup" x="26" y="38" width="11" height="11"></rect>
                <rect id="Rectangle-3-Copy-18" sketch:type="MSShapeGroup" x="37" y="38" width="11" height="11"></rect>
                <rect id="Rectangle-3-Copy-17" sketch:type="MSShapeGroup" x="48" y="38" width="11" height="11"></rect>
                <rect id="Rectangle-3-Copy-16" sketch:type="MSShapeGroup" x="59" y="38" width="11" height="11"></rect>
                <rect id="Rectangle-3-Copy-15" sketch:type="MSShapeGroup" x="70" y="38" width="11" height="11"></rect>
                <rect id="Rectangle-3-Copy-14" sketch:type="MSShapeGroup" x="81" y="38" width="11" height="11"></rect>
                <rect id="Rectangle-3-Copy-13" sketch:type="MSShapeGroup" x="92" y="38" width="11" height="11"></rect>
                <rect id="Rectangle-3-Copy-12" sketch:type="MSShapeGroup" x="103" y="38" width="11" height="11"></rect>
                <rect id="Rectangle-3-Copy-31" sketch:type="MSShapeGroup" x="4" y="49" width="11" height="11"></rect>
                <rect id="Rectangle-3-Copy-30" sketch:type="MSShapeGroup" x="15" y="49" width="11" height="11"></rect>
                <rect id="Rectangle-3-Copy-29" sketch:type="MSShapeGroup" x="26" y="49" width="11" height="11"></rect>
                <rect id="Rectangle-3-Copy-28" sketch:type="MSShapeGroup" x="37" y="49" width="11" height="11"></rect>
                <rect id="Rectangle-3-Copy-27" sketch:type="MSShapeGroup" x="48" y="49" width="11" height="11"></rect>
                <rect id="Rectangle-3-Copy-26" sketch:type="MSShapeGroup" x="59" y="49" width="11" height="11"></rect>
                <rect id="Rectangle-3-Copy-25" sketch:type="MSShapeGroup" x="70" y="49" width="11" height="11"></rect>
                <rect id="Rectangle-3-Copy-24" sketch:type="MSShapeGroup" x="81" y="49" width="11" height="11"></rect>
                <rect id="Rectangle-3-Copy-23" sketch:type="MSShapeGroup" x="92" y="49" width="11" height="11"></rect>
                <rect id="Rectangle-3-Copy-22" sketch:type="MSShapeGroup" x="103" y="49" width="11" height="11"></rect>
                <rect id="Rectangle-3-Copy-41" sketch:type="MSShapeGroup" x="4" y="60" width="11" height="11"></rect>
                <rect id="Rectangle-3-Copy-40" sketch:type="MSShapeGroup" x="15" y="60" width="11" height="11"></rect>
                <rect id="Rectangle-3-Copy-39" sketch:type="MSShapeGroup" x="26" y="60" width="11" height="11"></rect>
                <rect id="Rectangle-3-Copy-38" sketch:type="MSShapeGroup" x="37" y="60" width="11" height="11"></rect>
                <rect id="Rectangle-3-Copy-37" sketch:type="MSShapeGroup" x="48" y="60" width="11" height="11"></rect>
                <rect id="Rectangle-3-Copy-36" sketch:type="MSShapeGroup" x="59" y="60" width="11" height="11"></rect>
                <rect id="Rectangle-3-Copy-35" sketch:type="MSShapeGroup" x="70" y="60" width="11" height="11"></rect>
                <rect id="Rectangle-3-Copy-34" sketch:type="MSShapeGroup" x="81" y="60" width="11" height="11"></rect>
                <rect id="Rectangle-3-Copy-33" sketch:type="MSShapeGroup" x="92" y="60" width="11" height="11"></rect>
                <rect id="Rectangle-3-Copy-32" sketch:type="MSShapeGroup" x="103" y="60" width="11" height="11"></rect>
                <rect id="Rectangle-3-Copy-51" sketch:type="MSShapeGroup" x="4" y="71" width="11" height="11"></rect>
                <rect id="Rectangle-3-Copy-50" sketch:type="MSShapeGroup" x="15" y="71" width="11" height="11"></rect>
                <rect id="Rectangle-3-Copy-49" sketch:type="MSShapeGroup" x="26" y="71" width="11" height="11"></rect>
                <rect id="Rectangle-3-Copy-48" sketch:type="MSShapeGroup" x="37" y="71" width="11" height="11"></rect>
                <rect id="Rectangle-3-Copy-47" sketch:type="MSShapeGroup" x="48" y="71" width="11" height="11"></rect>
                <rect id="Rectangle-3-Copy-46" sketch:type="MSShapeGroup" x="59" y="71" width="11" height="11"></rect>
                <rect id="Rectangle-3-Copy-45" sketch:type="MSShapeGroup" x="70" y="71" width="11" height="11"></rect>
                <rect id="Rectangle-3-Copy-44" sketch:type="MSShapeGroup" x="81" y="71" width="11" height="11"></rect>
                <rect id="Rectangle-3-Copy-43" sketch:type="MSShapeGroup" x="92" y="71" width="11" height="11"></rect>
                <rect id="Rectangle-3-Copy-42" sketch:type="MSShapeGroup" x="103" y="71" width="11" height="11"></rect>
                <rect id="Rectangle-3-Copy-61" sketch:type="MSShapeGroup" x="4" y="82" width="11" height="11"></rect>
                <rect id="Rectangle-3-Copy-60" sketch:type="MSShapeGroup" x="15" y="82" width="11" height="11"></rect>
                <rect id="Rectangle-3-Copy-59" sketch:type="MSShapeGroup" x="26" y="82" width="11" height="11"></rect>
                <rect id="Rectangle-3-Copy-58" sketch:type="MSShapeGroup" x="37" y="82" width="11" height="11"></rect>
                <rect id="Rectangle-3-Copy-57" sketch:type="MSShapeGroup" x="48" y="82" width="11" height="11"></rect>
                <rect id="Rectangle-3-Copy-56" sketch:type="MSShapeGroup" x="59" y="82" width="11" height="11"></rect>
                <rect id="Rectangle-3-Copy-55" sketch:type="MSShapeGroup" x="70" y="82" width="11" height="11"></rect>
                <rect id="Rectangle-3-Copy-54" sketch:type="MSShapeGroup" x="81" y="82" width="11" height="11"></rect>
                <rect id="Rectangle-3-Copy-53" sketch:type="MSShapeGroup" x="92" y="82" width="11" height="11"></rect>
                <rect id="Rectangle-3-Copy-52" sketch:type="MSShapeGroup" x="103" y="82" width="11" height="11"></rect>
                <rect id="Rectangle-3-Copy-71" sketch:type="MSShapeGroup" x="4" y="93" width="11" height="11"></rect>
                <rect id="Rectangle-3-Copy-70" sketch:type="MSShapeGroup" x="15" y="93" width="11" height="11"></rect>
                <rect id="Rectangle-3-Copy-69" sketch:type="MSShapeGroup" x="26" y="93" width="11" height="11"></rect>
                <rect id="Rectangle-3-Copy-68" sketch:type="MSShapeGroup" x="37" y="93" width="11" height="11"></rect>
                <rect id="Rectangle-3-Copy-67" sketch:type="MSShapeGroup" x="48" y="93" width="11" height="11"></rect>
                <rect id="Rectangle-3-Copy-66" sketch:type="MSShapeGroup" x="59" y="93" width="11" height="11"></rect>
                <rect id="Rectangle-3-Copy-65" sketch:type="MSShapeGroup" x="70" y="93" width="11" height="11"></rect>
                <rect id="Rectangle-3-Copy-64" sketch:type="MSShapeGroup" x="81" y="93" width="11" height="11"></rect>
                <rect id="Rectangle-3-Copy-63" sketch:type="MSShapeGroup" x="92" y="93" width="11" height="11"></rect>
                <rect id="Rectangle-3-Copy-62" sketch:type="MSShapeGroup" x="103" y="93" width="11" height="11"></rect>
                <rect id="Rectangle-3-Copy-81" sketch:type="MSShapeGroup" x="4" y="104" width="11" height="11"></rect>
                <rect id="Rectangle-3-Copy-80" sketch:type="MSShapeGroup" x="15" y="104" width="11" height="11"></rect>
                <rect id="Rectangle-3-Copy-79" sketch:type="MSShapeGroup" x="26" y="104" width="11" height="11"></rect>
                <rect id="Rectangle-3-Copy-78" sketch:type="MSShapeGroup" x="37" y="104" width="11" height="11"></rect>
                <rect id="Rectangle-3-Copy-77" sketch:type="MSShapeGroup" x="48" y="104" width="11" height="11"></rect>
                <rect id="Rectangle-3-Copy-76" sketch:type="MSShapeGroup" x="59" y="104" width="11" height="11"></rect>
                <rect id="Rectangle-3-Copy-75" sketch:type="MSShapeGroup" x="70" y="104" width="11" height="11"></rect>
                <rect id="Rectangle-3-Copy-74" sketch:type="MSShapeGroup" x="81" y="104" width="11" height="11"></rect>
                <rect id="Rectangle-3-Copy-73" sketch:type="MSShapeGroup" x="92" y="104" width="11" height="11"></rect>
                <rect id="Rectangle-3-Copy-72" sketch:type="MSShapeGroup" x="103" y="104" width="11" height="11"></rect>
                <rect id="Rectangle-3-Copy-91" sketch:type="MSShapeGroup" x="4" y="115" width="11" height="11"></rect>
                <rect id="Rectangle-3-Copy-90" sketch:type="MSShapeGroup" x="15" y="115" width="11" height="11"></rect>
                <rect id="Rectangle-3-Copy-89" sketch:type="MSShapeGroup" x="26" y="115" width="11" height="11"></rect>
                <rect id="Rectangle-3-Copy-88" sketch:type="MSShapeGroup" x="37" y="115" width="11" height="11"></rect>
                <rect id="Rectangle-3-Copy-87" sketch:type="MSShapeGroup" x="48" y="115" width="11" height="11"></rect>
                <rect id="Rectangle-3-Copy-86" sketch:type="MSShapeGroup" x="59" y="115" width="11" height="11"></rect>
                <rect id="Rectangle-3-Copy-85" sketch:type="MSShapeGroup" x="70" y="115" width="11" height="11"></rect>
                <rect id="Rectangle-3-Copy-84" sketch:type="MSShapeGroup" x="81" y="115" width="11" height="11"></rect>
                <rect id="Rectangle-3-Copy-83" sketch:type="MSShapeGroup" x="92" y="115" width="11" height="11"></rect>
                <rect id="Rectangle-3-Copy-82" sketch:type="MSShapeGroup" x="103" y="115" width="11" height="11"></rect>
                <rect id="Rectangle-3-Copy-101" sketch:type="MSShapeGroup" x="4" y="126" width="11" height="11"></rect>
                <rect id="Rectangle-3-Copy-100" sketch:type="MSShapeGroup" x="15" y="126" width="11" height="11"></rect>
                <rect id="Rectangle-3-Copy-99" sketch:type="MSShapeGroup" x="26" y="126" width="11" height="11"></rect>
                <rect id="Rectangle-3-Copy-98" sketch:type="MSShapeGroup" x="37" y="126" width="11" height="11"></rect>
                <rect id="Rectangle-3-Copy-97" sketch:type="MSShapeGroup" x="48" y="126" width="11" height="11"></rect>
                <rect id="Rectangle-3-Copy-96" sketch:type="MSShapeGroup" x="59" y="126" width="11" height="11"></rect>
                <rect id="Rectangle-3-Copy-95" sketch:type="MSShapeGroup" x="70" y="126" width="11" height="11"></rect>
                <rect id="Rectangle-3-Copy-94" sketch:type="MSShapeGroup" x="81" y="126" width="11" height="11"></rect>
                <rect id="Rectangle-3-Copy-93" sketch:type="MSShapeGroup" x="92" y="126" width="11" height="11"></rect>
                <rect id="Rectangle-3-Copy-92" sketch:type="MSShapeGroup" x="103" y="126" width="11" height="11"></rect>
                <rect id="Rectangle-5-Copy" sketch:type="MSShapeGroup" x="8" y="9" width="15" height="9"></rect>
                <rect id="Rectangle-5-Copy-2" sketch:type="MSShapeGroup" x="95" y="9" width="15" height="9"></rect>
                <rect id="Rectangle-5-Copy-3" sketch:type="MSShapeGroup" x="54" y="9" width="10" height="9"></rect>
            </g>
        </g>
    </g>
</svg>