<?xml version="1.0" encoding="UTF-8" standalone="no"?>
<svg width="48px" height="48px" viewBox="0 0 48 48" version="1.1" xmlns="http://www.w3.org/2000/svg" xmlns:xlink="http://www.w3.org/1999/xlink" xmlns:sketch="http://www.bohemiancoding.com/sketch/ns">
    <!-- Generator: Sketch 3.3.2 (12043) - http://www.bohemiancoding.com/sketch -->
    <title>phone</title>
    <desc>Created with Sketch.</desc>
    <defs></defs>
    <g id="Page-1" stroke="none" stroke-width="1" fill="none" fill-rule="evenodd" sketch:type="MSPage">
        <g id="phone" sketch:type="MSArtboardGroup">
            <circle id="Oval-1" opacity="0.95" fill="#FFFFFF" sketch:type="MSShapeGroup" cx="24" cy="24" r="24"></circle>
            <path d="M15,9.99519444 C15,9.16942135 15.661977,8.5 16.5037099,8.5 L31.4962901,8.5 C32.3267661,8.5 33,9.17630894 33,9.99519444 L33,38.0048056 C33,38.8305786 32.338023,39.5 31.4962901,39.5 L16.5037099,39.5 C15.6732339,39.5 15,38.8236911 15,38.0048056 L15,9.99519444 Z M18.25,12.5 L29.75,12.5 L29.75,33.5 L18.25,33.5 L18.25,12.5 Z M24,38 C24.8284271,38 25.5,37.3284271 25.5,36.5 C25.5,35.6715729 24.8284271,35 24,35 C23.1715729,35 22.5,35.6715729 22.5,36.5 C22.5,37.3284271 23.1715729,38 24,38 Z" id="Rectangle-1" fill="#9C85F0" sketch:type="MSShapeGroup"></path>
        </g>
    </g>
</svg>