<?xml version="1.0" encoding="UTF-8" standalone="no"?>
<svg width="192px" height="144px" viewBox="0 0 192 144" version="1.1" xmlns="http://www.w3.org/2000/svg" xmlns:xlink="http://www.w3.org/1999/xlink" xmlns:sketch="http://www.bohemiancoding.com/sketch/ns">
    <!-- Generator: Sketch 3.4.2 (15855) - http://www.bohemiancoding.com/sketch -->
    <title>pricing</title>
    <desc>Created with Sketch.</desc>
    <defs></defs>
    <g id="Page-1" stroke="none" stroke-width="1" fill="none" fill-rule="evenodd" sketch:type="MSPage">
        <g id="pricing" sketch:type="MSArtboardGroup" stroke="#3A4860" stroke-width="2">
            <path d="M64,10 L3.00523183,10 C1.8893908,10 1,10.8945208 1,11.9979681 L1,132.002032 C1,133.10789 1.89777287,134 3.00523183,134 L64,134 L64,10 Z M128,10 L188.994768,10 C190.102227,10 191,10.8921104 191,11.9979681 L191,132.002032 C191,133.105479 190.110609,134 188.994768,134 L128,134 L128,10 Z" id="Rectangle-271-Copy-3" fill="#FFFFFF" sketch:type="MSShapeGroup"></path>
            <rect id="Rectangle-271-Copy" fill="#FFFFFF" sketch:type="MSShapeGroup" x="64" y="1" width="64" height="142" rx="2"></rect>
            <g id="Group" sketch:type="MSLayerGroup" transform="translate(73.000000, 9.000000)">
                <rect id="Rectangle-271-Copy-2" sketch:type="MSShapeGroup" x="0" y="115" width="46" height="10" rx="2"></rect>
                <path d="M0,1 L46,1" id="Line" stroke-linecap="square" sketch:type="MSShapeGroup"></path>
                <rect id="Rectangle-271-Copy-4" sketch:type="MSShapeGroup" x="8" y="16" width="30" height="20"></rect>
                <path d="M0,61 L46,61" id="Line-Copy-2" stroke-linecap="square" sketch:type="MSShapeGroup"></path>
                <path d="M0,51 L46,51" id="Line-Copy-7" stroke-linecap="square" sketch:type="MSShapeGroup"></path>
                <path d="M0,71 L46,71" id="Line-Copy-3" stroke-linecap="square" sketch:type="MSShapeGroup"></path>
                <path d="M0,81 L46,81" id="Line-Copy-4" stroke-linecap="square" sketch:type="MSShapeGroup"></path>
                <path d="M0,91 L46,91" id="Line-Copy-5" stroke-linecap="square" sketch:type="MSShapeGroup"></path>
                <path d="M0,101 L46,101" id="Line-Copy-6" stroke-linecap="square" sketch:type="MSShapeGroup"></path>
            </g>
            <g id="Group-Copy" sketch:type="MSLayerGroup" transform="translate(10.000000, 19.000000)">
                <rect id="Rectangle-271-Copy-2" sketch:type="MSShapeGroup" x="0" y="96" width="45" height="10" rx="2"></rect>
                <path d="M0,1 L45,1" id="Line" stroke-linecap="square" sketch:type="MSShapeGroup"></path>
                <rect id="Rectangle-271-Copy-4" sketch:type="MSShapeGroup" x="8" y="16" width="29.375" height="20"></rect>
                <path d="M0,51 L45,51" id="Line-Copy-2" stroke-linecap="square" sketch:type="MSShapeGroup"></path>
                <path d="M0,61 L45,61" id="Line-Copy-3" stroke-linecap="square" sketch:type="MSShapeGroup"></path>
                <path d="M0,71 L45,71" id="Line-Copy-4" stroke-linecap="square" sketch:type="MSShapeGroup"></path>
                <path d="M0,81 L45,81" id="Line-Copy-5" stroke-linecap="square" sketch:type="MSShapeGroup"></path>
            </g>
            <g id="Group-Copy-2" sketch:type="MSLayerGroup" transform="translate(137.000000, 19.000000)">
                <rect id="Rectangle-271-Copy-2" sketch:type="MSShapeGroup" x="0" y="96" width="45" height="10" rx="2"></rect>
                <path d="M0,1 L45,1" id="Line" stroke-linecap="square" sketch:type="MSShapeGroup"></path>
                <rect id="Rectangle-271-Copy-4" sketch:type="MSShapeGroup" x="8" y="16" width="29.375" height="20"></rect>
                <path d="M0,51 L45,51" id="Line-Copy-2" stroke-linecap="square" sketch:type="MSShapeGroup"></path>
                <path d="M0,61 L45,61" id="Line-Copy-3" stroke-linecap="square" sketch:type="MSShapeGroup"></path>
                <path d="M0,71 L45,71" id="Line-Copy-4" stroke-linecap="square" sketch:type="MSShapeGroup"></path>
                <path d="M0,81 L45,81" id="Line-Copy-5" stroke-linecap="square" sketch:type="MSShapeGroup"></path>
            </g>
        </g>
    </g>
</svg>