<?xml version="1.0" encoding="UTF-8" standalone="no"?>
<svg width="140px" height="140px" viewBox="0 0 140 140" version="1.1" xmlns="http://www.w3.org/2000/svg" xmlns:xlink="http://www.w3.org/1999/xlink" xmlns:sketch="http://www.bohemiancoding.com/sketch/ns">
    <!-- Generator: Sketch 3.3.2 (12043) - http://www.bohemiancoding.com/sketch -->
    <title>rocket_ship</title>
    <desc>Created with Sketch.</desc>
    <defs></defs>
    <g id="Page-1" stroke="none" stroke-width="1" fill="none" fill-rule="evenodd" sketch:type="MSPage">
        <g id="rocket_ship" sketch:type="MSArtboardGroup">
            <g id="Group" sketch:type="MSLayerGroup">
                <path d="M6,134.3 C6,134.3 6.1,112.8 19.4,99.6 C23.1,95.9 27.2,92.9 31.3,90.7 L42.8,84.4 L48.7,81 L49,80.7 L49.1,80.8 L59.6,91.2 L59.7,91.3 L59.4,91.6 L56,97.4 L49.6,109 C47.3,113 44.3,117.1 40.6,120.8 C27.3,134 6,134.3 6,134.3 L6,134.3 Z" id="Shape" fill="#9C88ED" sketch:type="MSShapeGroup"></path>
                <path d="M13.5,126.8 C13.5,126.8 13.6,111.3 23.2,101.8 C25.9,99.1 28.9,97 31.8,95.4 L40.1,90.9 L44.3,88.5 L44.5,88.3 L44.6,88.4 L52.2,95.9 L52.3,96 L52.1,96.2 L49.7,100.4 L45.1,108.7 C43.5,111.6 41.3,114.5 38.6,117.2 C28.8,126.6 13.5,126.8 13.5,126.8 L13.5,126.8 Z" id="Shape" fill="#B9AFEF" sketch:type="MSShapeGroup"></path>
                <path d="M78.1,95.4 C88.4,105.7 85.3,128.5 74.3,140 C74.3,140 65.7,131.4 58.8,124.5 C51.6,117.4 46.9,112.6 46.9,112.6 L69.7,87 L78.1,95.4 L78.1,95.4 Z" id="Shape" fill="#3A4860" sketch:type="MSShapeGroup"></path>
                <path d="M44.9,62.4 C34.6,52.1 11.7,55.3 0,66.2 C0,66.2 8.6,74.8 15.5,81.7 C22.7,88.8 27.4,93.6 27.4,93.6 L53.2,70.8 L44.9,62.4 L44.9,62.4 Z" id="Shape" fill="#3A4860" sketch:type="MSShapeGroup"></path>
                <path d="M77.6,107.7 C87.6,102.2 97.7,94.9 106.9,85.7 C139.7,53.1 139.9,0 139.9,0 C139.9,0 87.4,0.7 54.6,33.3 C45.4,42.5 38,52.5 32.4,62.4 L16.7,91 L12.2,98.7 C21.9,108.4 31.6,118 41.4,127.7 L49.2,123.2 L77.6,107.7 L77.6,107.7 Z" id="Shape" fill="#C3CCD8" sketch:type="MSShapeGroup"></path>
                <path d="M33.4,82.2 C41.2,68.3 51.4,54.2 64.2,41.3 C86.7,18.6 116.1,6.7 140,0.5 L140,0.1 C140,0.1 87.5,0.8 54.7,33.4 C45.5,42.6 38.1,52.6 32.5,62.5 L16.8,91.1 L12.3,98.8 C14.9,101.4 17.6,104 20.2,106.6 L33.4,82.2 L33.4,82.2 Z" id="Shape" fill="#D7DDE2" sketch:type="MSShapeGroup"></path>
                <path d="M19.8,85.6 L16.9,90.9 L8.5,105.3 L8.4,105.4 C12.2,110.1 16.3,114.6 20.7,119 L20.9,119.2 C25.3,123.6 30,127.7 34.7,131.6 L34.8,131.5 L49.3,123.2 L54.7,120.3 C48.3,115.3 42.1,109.8 36.1,103.9 C30.3,98 24.9,91.9 19.8,85.6 L19.8,85.6 Z" id="Shape" fill="#3A485E" sketch:type="MSShapeGroup"></path>
                <path d="M16,114.3 L26.9,94.1 C24.4,91.3 22.1,88.5 19.8,85.6 L16.9,90.9 L8.5,105.3 L8.4,105.4 C10.8,108.5 13.4,111.5 16,114.3 L16,114.3 Z" id="Shape" fill="#495A72" sketch:type="MSShapeGroup"></path>
                <path d="M109.3,4.6 C110.8,10.8 114,16.7 118.9,21.6 C123.7,26.4 129.5,29.6 135.6,31.1 C140.1,14 139.9,0.1 139.9,0.1 C139.9,0.1 126.2,2.63677968e-15 109.3,4.6 L109.3,4.6 Z" id="Shape" fill="#3A485D" sketch:type="MSShapeGroup"></path>
                <path d="M109.3,4.6 C109.7,6.5 110.4,8.5 111.2,10.3 C121,5.8 131.1,2.4 140,0.1 C140,-0.1 140,0.1 140,0.1 C140,0.1 126.1,-0.2 109.3,4.6 L109.3,4.6 Z" id="Shape" fill="#46637F" sketch:type="MSShapeGroup"></path>
            </g>
        </g>
    </g>
</svg>