<?xml version="1.0" encoding="UTF-8" standalone="no"?>
<svg width="192px" height="144px" viewBox="0 0 192 144" version="1.1" xmlns="http://www.w3.org/2000/svg" xmlns:xlink="http://www.w3.org/1999/xlink" xmlns:sketch="http://www.bohemiancoding.com/sketch/ns">
    <!-- Generator: Sketch 3.4.2 (15855) - http://www.bohemiancoding.com/sketch -->
    <title>video_player</title>
    <desc>Created with Sketch.</desc>
    <defs>
        <path d="M0,0 L192,0 L192,144 L0,144 L0,0 Z M36,99 L156,99 L156,132 L36,132 L36,99 Z" id="path-1"></path>
    </defs>
    <g id="Page-1" stroke="none" stroke-width="1" fill="none" fill-rule="evenodd" sketch:type="MSPage">
        <g id="video_player" sketch:type="MSArtboardGroup">
            <rect id="border" stroke="#3A4860" stroke-width="2" fill="#FFFFFF" sketch:type="MSShapeGroup" x="1" y="1" width="190" height="142"></rect>
            <g id="mediu-crosshatch" sketch:type="MSLayerGroup">
                <mask id="mask-2" sketch:name="Mask" fill="white">
                    <use xlink:href="#path-1"></use>
                </mask>
                <use id="Mask" sketch:type="MSShapeGroup" xlink:href="#path-1"></use>
                <g mask="url(#mask-2)" stroke-linecap="square" stroke="#3A4860" stroke-width="2" sketch:type="MSShapeGroup">
                    <g transform="translate(-28.000000, -20.000000)">
                        <path d="M25,63 L37,51" id="Line-Copy-5" transform="translate(31.000000, 57.000000) scale(-1, 1) translate(-31.000000, -57.000000) "></path>
                        <path d="M19,69 L31,57" id="Line-Copy-6" transform="translate(25.000000, 63.000000) scale(-1, 1) translate(-25.000000, -63.000000) "></path>
                        <path d="M57,63 L69,51" id="Line-Copy-5" transform="translate(63.000000, 57.000000) scale(-1, 1) translate(-63.000000, -57.000000) "></path>
                        <path d="M51,69 L63,57" id="Line-Copy-6" transform="translate(57.000000, 63.000000) scale(-1, 1) translate(-57.000000, -63.000000) "></path>
                        <path d="M89,63 L101,51" id="Line-Copy-5" transform="translate(95.000000, 57.000000) scale(-1, 1) translate(-95.000000, -57.000000) "></path>
                        <path d="M83,69 L95,57" id="Line-Copy-6" transform="translate(89.000000, 63.000000) scale(-1, 1) translate(-89.000000, -63.000000) "></path>
                        <path d="M121,63 L133,51" id="Line-Copy-5" transform="translate(127.000000, 57.000000) scale(-1, 1) translate(-127.000000, -57.000000) "></path>
                        <path d="M127,69 L115,57" id="Line-Copy-6"></path>
                        <path d="M153,63 L165,51" id="Line-Copy-5" transform="translate(159.000000, 57.000000) scale(-1, 1) translate(-159.000000, -57.000000) "></path>
                        <path d="M147,69 L159,57" id="Line-Copy-6" transform="translate(153.000000, 63.000000) scale(-1, 1) translate(-153.000000, -63.000000) "></path>
                        <path d="M185,63 L197,51" id="Line-Copy-5" transform="translate(191.000000, 57.000000) scale(-1, 1) translate(-191.000000, -57.000000) "></path>
                        <path d="M179,69 L191,57" id="Line-Copy-6" transform="translate(185.000000, 63.000000) scale(-1, 1) translate(-185.000000, -63.000000) "></path>
                        <path d="M217,63 L229,51" id="Line-Copy-5" transform="translate(223.000000, 57.000000) scale(-1, 1) translate(-223.000000, -57.000000) "></path>
                        <path d="M211,69 L223,57" id="Line-Copy-6" transform="translate(217.000000, 63.000000) scale(-1, 1) translate(-217.000000, -63.000000) "></path>
                        <path d="M35,48 L47,36" id="Line-Copy-5"></path>
                        <path d="M40,53 L52,41" id="Line-Copy-6"></path>
                        <path d="M67,47 L79,35" id="Line-Copy-5"></path>
                        <path d="M73,53 L85,41" id="Line-Copy-6"></path>
                        <path d="M99,47 L111,35" id="Line-Copy-5"></path>
                        <path d="M105,53 L117,41" id="Line-Copy-6"></path>
                        <path d="M131,47 L143,35" id="Line-Copy-5"></path>
                        <path d="M137,53 L149,41" id="Line-Copy-6"></path>
                        <path d="M163,47 L175,35" id="Line-Copy-5"></path>
                        <path d="M169,53 L181,41" id="Line-Copy-6"></path>
                        <path d="M195,47 L207,35" id="Line-Copy-5"></path>
                        <path d="M201,53 L213,41" id="Line-Copy-6"></path>
                        <path d="M25,31 L37,19" id="Line-Copy-5" transform="translate(31.000000, 25.000000) scale(-1, 1) translate(-31.000000, -25.000000) "></path>
                        <path d="M19,37 L31,25" id="Line-Copy-6" transform="translate(25.000000, 31.000000) scale(-1, 1) translate(-25.000000, -31.000000) "></path>
                        <path d="M57,31 L69,19" id="Line-Copy-5" transform="translate(63.000000, 25.000000) scale(-1, 1) translate(-63.000000, -25.000000) "></path>
                        <path d="M51,37 L63,25" id="Line-Copy-6" transform="translate(57.000000, 31.000000) scale(-1, 1) translate(-57.000000, -31.000000) "></path>
                        <path d="M89,31 L101,19" id="Line-Copy-5" transform="translate(95.000000, 25.000000) scale(-1, 1) translate(-95.000000, -25.000000) "></path>
                        <path d="M83,37 L95,25" id="Line-Copy-6" transform="translate(89.000000, 31.000000) scale(-1, 1) translate(-89.000000, -31.000000) "></path>
                        <path d="M121,31 L133,19" id="Line-Copy-5" transform="translate(127.000000, 25.000000) scale(-1, 1) translate(-127.000000, -25.000000) "></path>
                        <path d="M127,37 L115,25" id="Line-Copy-6"></path>
                        <path d="M153,31 L165,19" id="Line-Copy-5" transform="translate(159.000000, 25.000000) scale(-1, 1) translate(-159.000000, -25.000000) "></path>
                        <path d="M147,37 L159,25" id="Line-Copy-6" transform="translate(153.000000, 31.000000) scale(-1, 1) translate(-153.000000, -31.000000) "></path>
                        <path d="M185,31 L197,19" id="Line-Copy-5" transform="translate(191.000000, 25.000000) scale(-1, 1) translate(-191.000000, -25.000000) "></path>
                        <path d="M179,37 L191,25" id="Line-Copy-6" transform="translate(185.000000, 31.000000) scale(-1, 1) translate(-185.000000, -31.000000) "></path>
                        <path d="M217,31 L229,19" id="Line-Copy-5" transform="translate(223.000000, 25.000000) scale(-1, 1) translate(-223.000000, -25.000000) "></path>
                        <path d="M211,37 L223,25" id="Line-Copy-6" transform="translate(217.000000, 31.000000) scale(-1, 1) translate(-217.000000, -31.000000) "></path>
                        <path d="M25,95 L37,83" id="Line-Copy-5" transform="translate(31.000000, 89.000000) scale(-1, 1) translate(-31.000000, -89.000000) "></path>
                        <path d="M19,101 L31,89" id="Line-Copy-6" transform="translate(25.000000, 95.000000) scale(-1, 1) translate(-25.000000, -95.000000) "></path>
                        <path d="M57,95 L69,83" id="Line-Copy-5" transform="translate(63.000000, 89.000000) scale(-1, 1) translate(-63.000000, -89.000000) "></path>
                        <path d="M51,101 L63,89" id="Line-Copy-6" transform="translate(57.000000, 95.000000) scale(-1, 1) translate(-57.000000, -95.000000) "></path>
                        <path d="M89,95 L101,83" id="Line-Copy-5" transform="translate(95.000000, 89.000000) scale(-1, 1) translate(-95.000000, -89.000000) "></path>
                        <path d="M83,101 L95,89" id="Line-Copy-6" transform="translate(89.000000, 95.000000) scale(-1, 1) translate(-89.000000, -95.000000) "></path>
                        <path d="M121,95 L133,83" id="Line-Copy-5" transform="translate(127.000000, 89.000000) scale(-1, 1) translate(-127.000000, -89.000000) "></path>
                        <path d="M127,101 L115,89" id="Line-Copy-6"></path>
                        <path d="M153,95 L165,83" id="Line-Copy-5" transform="translate(159.000000, 89.000000) scale(-1, 1) translate(-159.000000, -89.000000) "></path>
                        <path d="M147,101 L159,89" id="Line-Copy-6" transform="translate(153.000000, 95.000000) scale(-1, 1) translate(-153.000000, -95.000000) "></path>
                        <path d="M185,95 L197,83" id="Line-Copy-5" transform="translate(191.000000, 89.000000) scale(-1, 1) translate(-191.000000, -89.000000) "></path>
                        <path d="M179,101 L191,89" id="Line-Copy-6" transform="translate(185.000000, 95.000000) scale(-1, 1) translate(-185.000000, -95.000000) "></path>
                        <path d="M217,95 L229,83" id="Line-Copy-5" transform="translate(223.000000, 89.000000) scale(-1, 1) translate(-223.000000, -89.000000) "></path>
                        <path d="M211,101 L223,89" id="Line-Copy-6" transform="translate(217.000000, 95.000000) scale(-1, 1) translate(-217.000000, -95.000000) "></path>
                        <path d="M35,79 L47,67" id="Line-Copy-5"></path>
                        <path d="M40,84 L52,72" id="Line-Copy-6"></path>
                        <path d="M67,79 L79,67" id="Line-Copy-5"></path>
                        <path d="M73,85 L85,73" id="Line-Copy-6"></path>
                        <path d="M99,79 L111,67" id="Line-Copy-5"></path>
                        <path d="M105,85 L117,73" id="Line-Copy-6"></path>
                        <path d="M131,79 L143,67" id="Line-Copy-5"></path>
                        <path d="M137,85 L149,73" id="Line-Copy-6"></path>
                        <path d="M163,79 L175,67" id="Line-Copy-5"></path>
                        <path d="M169,85 L181,73" id="Line-Copy-6"></path>
                        <path d="M195,79 L207,67" id="Line-Copy-5"></path>
                        <path d="M201,85 L213,73" id="Line-Copy-6"></path>
                        <path d="M25,127 L37,115" id="Line-Copy-5" transform="translate(31.000000, 121.000000) scale(-1, 1) translate(-31.000000, -121.000000) "></path>
                        <path d="M19,133 L31,121" id="Line-Copy-6" transform="translate(25.000000, 127.000000) scale(-1, 1) translate(-25.000000, -127.000000) "></path>
                        <path d="M57,127 L69,115" id="Line-Copy-5" transform="translate(63.000000, 121.000000) scale(-1, 1) translate(-63.000000, -121.000000) "></path>
                        <path d="M51,133 L63,121" id="Line-Copy-6" transform="translate(57.000000, 127.000000) scale(-1, 1) translate(-57.000000, -127.000000) "></path>
                        <path d="M89,127 L101,115" id="Line-Copy-5" transform="translate(95.000000, 121.000000) scale(-1, 1) translate(-95.000000, -121.000000) "></path>
                        <path d="M83,133 L95,121" id="Line-Copy-6" transform="translate(89.000000, 127.000000) scale(-1, 1) translate(-89.000000, -127.000000) "></path>
                        <path d="M121,127 L133,115" id="Line-Copy-5" transform="translate(127.000000, 121.000000) scale(-1, 1) translate(-127.000000, -121.000000) "></path>
                        <path d="M127,133 L115,121" id="Line-Copy-6"></path>
                        <path d="M153,127 L165,115" id="Line-Copy-5" transform="translate(159.000000, 121.000000) scale(-1, 1) translate(-159.000000, -121.000000) "></path>
                        <path d="M147,133 L159,121" id="Line-Copy-6" transform="translate(153.000000, 127.000000) scale(-1, 1) translate(-153.000000, -127.000000) "></path>
                        <path d="M185,127 L197,115" id="Line-Copy-5" transform="translate(191.000000, 121.000000) scale(-1, 1) translate(-191.000000, -121.000000) "></path>
                        <path d="M179,133 L191,121" id="Line-Copy-6" transform="translate(185.000000, 127.000000) scale(-1, 1) translate(-185.000000, -127.000000) "></path>
                        <path d="M217,127 L229,115" id="Line-Copy-5" transform="translate(223.000000, 121.000000) scale(-1, 1) translate(-223.000000, -121.000000) "></path>
                        <path d="M211,133 L223,121" id="Line-Copy-6" transform="translate(217.000000, 127.000000) scale(-1, 1) translate(-217.000000, -127.000000) "></path>
                        <path d="M35,111 L47,99" id="Line-Copy-5"></path>
                        <path d="M41,116 L53,104" id="Line-Copy-6"></path>
                        <path d="M73,117 L85,105" id="Line-Copy-6"></path>
                        <path d="M67,111 L79,99" id="Line-Copy-4"></path>
                        <path d="M99,111 L111,99" id="Line-Copy-5"></path>
                        <path d="M105,117 L117,105" id="Line-Copy-6"></path>
                        <path d="M131,111 L143,99" id="Line-Copy-5"></path>
                        <path d="M137,117 L149,105" id="Line-Copy-6"></path>
                        <path d="M163,111 L175,99" id="Line-Copy-5"></path>
                        <path d="M169,117 L181,105" id="Line-Copy-6"></path>
                        <path d="M195,111 L207,99" id="Line-Copy-5"></path>
                        <path d="M201,117 L213,105" id="Line-Copy-6"></path>
                        <path d="M25,159 L37,147" id="Line-Copy-5" transform="translate(31.000000, 153.000000) scale(-1, 1) translate(-31.000000, -153.000000) "></path>
                        <path d="M19,165 L31,153" id="Line-Copy-6" transform="translate(25.000000, 159.000000) scale(-1, 1) translate(-25.000000, -159.000000) "></path>
                        <path d="M57,159 L69,147" id="Line-Copy-5" transform="translate(63.000000, 153.000000) scale(-1, 1) translate(-63.000000, -153.000000) "></path>
                        <path d="M51,165 L63,153" id="Line-Copy-6" transform="translate(57.000000, 159.000000) scale(-1, 1) translate(-57.000000, -159.000000) "></path>
                        <path d="M89,159 L101,147" id="Line-Copy-5" transform="translate(95.000000, 153.000000) scale(-1, 1) translate(-95.000000, -153.000000) "></path>
                        <path d="M83,165 L95,153" id="Line-Copy-6" transform="translate(89.000000, 159.000000) scale(-1, 1) translate(-89.000000, -159.000000) "></path>
                        <path d="M121,159 L133,147" id="Line-Copy-5" transform="translate(127.000000, 153.000000) scale(-1, 1) translate(-127.000000, -153.000000) "></path>
                        <path d="M127,165 L115,153" id="Line-Copy-6"></path>
                        <path d="M153,159 L165,147" id="Line-Copy-5" transform="translate(159.000000, 153.000000) scale(-1, 1) translate(-159.000000, -153.000000) "></path>
                        <path d="M147,165 L159,153" id="Line-Copy-6" transform="translate(153.000000, 159.000000) scale(-1, 1) translate(-153.000000, -159.000000) "></path>
                        <path d="M185,159 L197,147" id="Line-Copy-5" transform="translate(191.000000, 153.000000) scale(-1, 1) translate(-191.000000, -153.000000) "></path>
                        <path d="M179,165 L191,153" id="Line-Copy-6" transform="translate(185.000000, 159.000000) scale(-1, 1) translate(-185.000000, -159.000000) "></path>
                        <path d="M217,159 L229,147" id="Line-Copy-5" transform="translate(223.000000, 153.000000) scale(-1, 1) translate(-223.000000, -153.000000) "></path>
                        <path d="M211,165 L223,153" id="Line-Copy-6" transform="translate(217.000000, 159.000000) scale(-1, 1) translate(-217.000000, -159.000000) "></path>
                        <path d="M35,143 L47,131" id="Line-Copy-5"></path>
                        <path d="M41,148 L53,136" id="Line-Copy-6"></path>
                        <path d="M67,143 L79,131" id="Line-Copy-5"></path>
                        <path d="M73,149 L85,137" id="Line-Copy-6"></path>
                        <path d="M99,143 L111,131" id="Line-Copy-5"></path>
                        <path d="M105,149 L117,137" id="Line-Copy-6"></path>
                        <path d="M131,143 L143,131" id="Line-Copy-5"></path>
                        <path d="M137,149 L149,137" id="Line-Copy-6"></path>
                        <path d="M163,143 L175,131" id="Line-Copy-5"></path>
                        <path d="M169,149 L181,137" id="Line-Copy-6"></path>
                        <path d="M195,143 L207,131" id="Line-Copy-5"></path>
                        <path d="M201,149 L213,137" id="Line-Copy-6"></path>
                    </g>
                </g>
            </g>
            <g id="controls" sketch:type="MSLayerGroup" transform="translate(36.000000, 99.000000)">
                <rect id="Rectangle-4" stroke="#3A4860" stroke-width="2" sketch:type="MSShapeGroup" x="0" y="0" width="120" height="33"></rect>
                <path d="M73,17 L73,11 L79,14 L73,17 Z" id="Triangle-2" fill="#3A4860" sketch:type="MSShapeGroup"></path>
                <path d="M79,17 L79,11 L85,14 L79,17 Z" id="Triangle-3" fill="#3A4860" sketch:type="MSShapeGroup"></path>
                <path d="M42,17 L42,11 L48,14 L42,17 Z" id="Triangle-4" fill="#3A4860" sketch:type="MSShapeGroup" transform="translate(45.000000, 14.000000) scale(-1, 1) translate(-45.000000, -14.000000) "></path>
                <path d="M36,17 L36,11 L42,14 L36,17 Z" id="Triangle-5" fill="#3A4860" sketch:type="MSShapeGroup" transform="translate(39.000000, 14.000000) scale(-1, 1) translate(-39.000000, -14.000000) "></path>
                <path d="M10,24 L110,24" id="Line" stroke="#3A4860" stroke-width="2" stroke-linecap="square" sketch:type="MSShapeGroup"></path>
                <rect id="Rectangle-327" stroke="#3A4860" stroke-width="2" sketch:type="MSShapeGroup" x="56" y="9" width="1" height="9"></rect>
                <rect id="Rectangle-327-Copy" stroke="#3A4860" stroke-width="2" sketch:type="MSShapeGroup" x="64" y="9" width="1" height="9"></rect>
                <circle id="Oval-1" fill="#3A4860" sketch:type="MSShapeGroup" cx="30" cy="24" r="3"></circle>
            </g>
        </g>
    </g>
</svg>