<?xml version="1.0" encoding="UTF-8" standalone="no"?>
<svg width="48px" height="48px" viewBox="0 0 48 48" version="1.1" xmlns="http://www.w3.org/2000/svg" xmlns:xlink="http://www.w3.org/1999/xlink" xmlns:sketch="http://www.bohemiancoding.com/sketch/ns">
    <!-- Generator: Sketch 3.3.2 (12043) - http://www.bohemiancoding.com/sketch -->
    <title>bug</title>
    <desc>Created with Sketch.</desc>
    <defs></defs>
    <g id="Page-1" stroke="none" stroke-width="1" fill="none" fill-rule="evenodd" sketch:type="MSPage">
        <g id="bug" sketch:type="MSArtboardGroup">
            <circle id="Oval-1" opacity="0.95" fill="#FFFFFF" sketch:type="MSShapeGroup" cx="24" cy="24" r="24"></circle>
            <path d="M17.257341,10.0039746 C16.7483378,10.0813133 16.4000792,10.5459019 16.4794837,11.0416624 C16.5588882,11.5374229 17.0358869,11.8766208 17.5448902,11.7992821 C18.1974056,11.7992821 18.6766541,12.0596017 19.157746,12.528177 C19.6388378,12.9967523 20.0517289,13.661016 20.3669271,14.379139 C20.4830527,14.6430492 20.5641563,14.9069595 20.6544762,15.1654837 C19.360505,16.5963438 18.8720401,18.6986489 19.9061111,20.2713383 C19.8839919,20.2857008 19.8692458,20.3126304 19.8489699,20.3269928 L15.2979516,17.3539636 C15.100095,17.209718 14.8510474,17.1489143 14.6067277,17.1852047 C14.2390499,17.2519877 13.9492699,17.5285748 13.8732783,17.8852623 C13.7972866,18.2419497 13.9501539,18.6079989 14.2601941,18.8117533 L18.4646788,21.5603691 C18.0407281,22.0181725 17.6499562,22.5244492 17.3126389,23.0756086 L10.6879488,26.2730513 C10.3249064,26.3657478 10.0558364,26.663603 10.0076544,27.0261237 C9.95947244,27.3886445 10.1418033,27.7434133 10.4686448,27.9230921 C10.7954863,28.1027709 11.2015482,28.0714668 11.4952984,27.8439454 L16.2195835,25.5441565 C15.9025421,26.5872301 15.7016264,27.6913443 15.7016264,28.8547035 C15.7016264,28.9301064 15.6997831,29.003714 15.7016264,29.079117 L12.1883656,33.6804901 C11.9693973,33.9402345 11.9130797,34.295528 12.0414256,34.6074978 C12.1697714,34.9194677 12.4624004,35.1385756 12.8049334,35.1791796 C13.1474664,35.2197835 13.4855119,35.0754358 13.686939,34.8025573 L16.1071444,31.7164237 C16.859196,34.5835298 18.6821839,36.9102483 21.0618375,38 C22.1677958,37.281877 23.0783681,35.8564028 23.0783681,34.2406261 L23.0783681,23.468781 C23.0783681,22.9301887 23.4470209,22.5711272 24,22.5711272 C24.5529791,22.5711272 24.9216319,22.9301887 24.9216319,23.468781 L24.9216319,34.2406261 C24.9216319,35.8564028 25.8322042,37.281877 26.9381625,38 C29.3178161,36.9102483 31.140804,34.5835298 31.8928556,31.7164237 L34.313061,34.8025573 C34.5144881,35.0754358 34.8525336,35.2197835 35.1950666,35.1791796 C35.5375996,35.1385756 35.8302286,34.9194677 35.9585744,34.6074978 C36.0869203,34.295528 36.0306027,33.9402345 35.8116344,33.6804901 L32.2983736,29.079117 C32.3002169,29.003714 32.2983736,28.9301064 32.2983736,28.8547035 C32.2983736,27.6913443 32.0956146,26.5890254 31.7804165,25.5441565 L36.5047016,27.8439454 C36.7984518,28.0714668 37.2045137,28.1027709 37.5313552,27.9230921 C37.8581967,27.7434133 38.0405276,27.3886445 37.9923456,27.0261237 C37.9441636,26.663603 37.6750936,26.3657478 37.3120512,26.2730513 L30.6873611,23.0756086 C30.3500438,22.5244492 29.9592719,22.0181725 29.5353212,21.5603691 L33.7398059,18.8117533 C34.1047921,18.573715 34.2465779,18.1178761 34.0785885,17.7225731 C33.9105991,17.3272701 33.4795253,17.102373 33.048582,17.1852047 C32.9220988,17.2169074 32.803978,17.2744313 32.7020484,17.3539636 L28.1510301,20.3269928 C28.1289109,20.3126304 28.1141648,20.2857008 28.0938889,20.2713383 C29.2956969,18.4437153 28.4551686,15.9069457 26.6542999,14.547898 C26.6782623,14.4922434 26.6874786,14.4365889 26.711441,14.379139 C27.0284824,13.6592207 27.4395303,12.9967523 27.9206221,12.528177 C28.401714,12.0596017 28.8809625,11.7992821 29.5334779,11.7992821 C30.0424812,11.7992821 30.4551098,11.3973889 30.4551098,10.9016284 C30.4551098,10.4058679 30.0424812,10.0039746 29.5334779,10.0039746 C28.3427295,10.0039746 27.3252479,10.5282044 26.5953154,11.2391462 C25.8672262,11.9482927 25.3566422,12.8567183 24.9824596,13.707694 C24.6727913,13.6358817 24.3373173,13.5945897 24.0036865,13.5945897 C23.3603875,13.5945897 22.7650133,13.7382143 22.2175639,13.987762 C22.1770121,13.8908154 22.1456766,13.8046406 22.1014383,13.707694 C21.7272557,12.8567183 21.2166717,11.9482927 20.4885825,11.2391462 C19.7604933,10.5299997 18.7411684,10.0039746 17.55042,10.0039746 C17.4927925,9.99867512 17.4347806,9.99867512 17.3771532,10.0039746 C17.3384828,10.0016066 17.2996979,10.0016066 17.2610275,10.0039746 L17.257341,10.0039746 Z" id="Shape" fill="#9C85F0" sketch:type="MSShapeGroup"></path>
        </g>
    </g>
</svg>