<?xml version="1.0" encoding="UTF-8" standalone="no"?>
<svg width="48px" height="48px" viewBox="0 0 48 48" version="1.1" xmlns="http://www.w3.org/2000/svg" xmlns:xlink="http://www.w3.org/1999/xlink" xmlns:sketch="http://www.bohemiancoding.com/sketch/ns">
    <!-- Generator: Sketch 3.3.2 (12043) - http://www.bohemiancoding.com/sketch -->
    <title>layout</title>
    <desc>Created with Sketch.</desc>
    <defs></defs>
    <g id="Page-1" stroke="none" stroke-width="1" fill="none" fill-rule="evenodd" sketch:type="MSPage">
        <g id="layout" sketch:type="MSArtboardGroup">
            <circle id="Oval-1" opacity="0.95" fill="#FFFFFF" sketch:type="MSShapeGroup" cx="24" cy="24" r="24"></circle>
            <path d="M10.25,10.25 L10.25,37.75 L37.75,37.75 L37.75,10.25 L10.25,10.25 L10.25,10.25 Z M35.0001816,18.5001513 L29.4999395,18.5001513 L29.4999395,12.9998487 L34.999879,12.9998487 L34.999879,18.5001513 L35.0001816,18.5001513 Z M26.7498184,22.6250757 L21.2501816,22.6250757 L21.2501816,12.9998487 L26.750121,12.9998487 L26.750121,22.6250757 L26.7498184,22.6250757 Z M18.5000605,26.7503026 L13.000121,26.7503026 L13.000121,21.2503026 L18.5000605,21.2503026 L18.5000605,26.7503026 L18.5000605,26.7503026 Z M21.2501816,25.3749243 L26.750121,25.3749243 L26.750121,35.0001513 L21.2501816,35.0001513 L21.2501816,25.3749243 L21.2501816,25.3749243 Z M29.4999395,21.2503026 L34.999879,21.2503026 L34.999879,26.7503026 L29.4999395,26.7503026 L29.4999395,21.2503026 L29.4999395,21.2503026 Z M18.5000605,12.9998487 L18.5000605,18.4998487 L13.000121,18.4998487 L13.000121,12.9998487 L18.5000605,12.9998487 L18.5000605,12.9998487 Z M13.000121,29.5004539 L18.5000605,29.5004539 L18.5000605,35.0001513 L13.000121,35.0001513 L13.000121,29.5004539 L13.000121,29.5004539 Z M29.4999395,35.0001513 L29.4999395,29.5004539 L34.999879,29.5004539 L34.999879,35.0001513 L29.4999395,35.0001513 L29.4999395,35.0001513 Z" id="Shape" stroke="#9C85F0" stroke-width="0.5" fill="#9C85F0" sketch:type="MSShapeGroup"></path>
        </g>
    </g>
</svg>