<?xml version="1.0" encoding="UTF-8" standalone="no"?>
<svg width="24px" height="24px" viewBox="0 0 24 24" version="1.1" xmlns="http://www.w3.org/2000/svg" xmlns:xlink="http://www.w3.org/1999/xlink" xmlns:sketch="http://www.bohemiancoding.com/sketch/ns">
    <!-- Generator: Sketch 3.4.2 (15855) - http://www.bohemiancoding.com/sketch -->
    <title>spinner</title>
    <desc>Created with Sketch.</desc>
    <defs></defs>
    <g id="Page-1" stroke="none" stroke-width="1" fill="none" fill-rule="evenodd" sketch:type="MSPage">
        <g id="spinner" sketch:type="MSArtboardGroup" fill="#FFFFFF">
            <path d="M20.4852814,3.51471863 C22.6568542,5.6862915 24,8.6862915 24,12 C24,18.627417 18.627417,24 12,24 C5.372583,24 0,18.627417 0,12 C0,8.6862915 1.34314575,5.6862915 3.51471863,3.51471863 L12,12 L20.4852814,3.51471863 L20.4852814,3.51471863 Z M4.92893219,4.92893219 C3.11928813,6.73857625 2,9.23857625 2,12 C2,17.5228475 6.4771525,22 12,22 C17.5228475,22 22,17.5228475 22,12 C22,9.23857625 20.8807119,6.73857625 19.0710678,4.92893219 L12,12 L4.92893219,4.92893219 L4.92893219,4.92893219 Z" id="Shape" sketch:type="MSShapeGroup"></path>
        </g>
    </g>
</svg>