<?xml version="1.0" encoding="UTF-8" standalone="no"?>
<svg width="192px" height="144px" viewBox="0 0 192 144" version="1.1" xmlns="http://www.w3.org/2000/svg" xmlns:xlink="http://www.w3.org/1999/xlink" xmlns:sketch="http://www.bohemiancoding.com/sketch/ns">
    <!-- Generator: Sketch 3.4.2 (15855) - http://www.bohemiancoding.com/sketch -->
    <title>calendar</title>
    <desc>Created with Sketch.</desc>
    <defs></defs>
    <g id="Page-1" stroke="none" stroke-width="1" fill="none" fill-rule="evenodd" sketch:type="MSPage">
        <g id="calendar" sketch:type="MSArtboardGroup" stroke="#3A4860" stroke-width="2">
            <rect id="Rectangle-25-Copy-8" fill="#FFFFFF" sketch:type="MSShapeGroup" x="109" y="1" width="27" height="28"></rect>
            <rect id="Rectangle-25-Copy-30" fill="#FFFFFF" sketch:type="MSShapeGroup" x="82" y="1" width="27" height="28"></rect>
            <rect id="Rectangle-25-Copy-31" fill="#FFFFFF" sketch:type="MSShapeGroup" x="55" y="1" width="27" height="28"></rect>
            <rect id="Rectangle-25-Copy-33" fill="#FFFFFF" sketch:type="MSShapeGroup" x="55" y="1" width="27" height="28"></rect>
            <rect id="Rectangle-25-Copy-7" fill="#FFFFFF" sketch:type="MSShapeGroup" x="136" y="1" width="27" height="28"></rect>
            <rect id="Rectangle-25-Copy-2" fill="#FFFFFF" sketch:type="MSShapeGroup" x="163" y="1" width="28" height="28"></rect>
            <rect id="Rectangle-25-Copy-11" fill="#FFFFFF" sketch:type="MSShapeGroup" x="109" y="29" width="27" height="29"></rect>
            <rect id="Rectangle-25-Copy-10" fill="#FFFFFF" sketch:type="MSShapeGroup" x="136" y="29" width="27" height="29"></rect>
            <rect id="Rectangle-25-Copy-9" fill="#FFFFFF" sketch:type="MSShapeGroup" x="163" y="29" width="28" height="29"></rect>
            <rect id="Rectangle-25-Copy-3" fill="#FFFFFF" sketch:type="MSShapeGroup" x="82" y="29" width="27" height="29"></rect>
            <rect id="Rectangle-25-Copy-4" fill="#FFFFFF" sketch:type="MSShapeGroup" x="55" y="29" width="27" height="29"></rect>
            <rect id="Rectangle-25-Copy-5" fill="#FFFFFF" sketch:type="MSShapeGroup" x="28" y="29" width="27" height="29"></rect>
            <rect id="Rectangle-25-Copy-6" fill="#FFFFFF" sketch:type="MSShapeGroup" x="1" y="29" width="27" height="29"></rect>
            <rect id="Rectangle-25-Copy-18" fill="#FFFFFF" sketch:type="MSShapeGroup" x="109" y="58" width="27" height="28"></rect>
            <rect id="Rectangle-25-Copy-17" fill="#FFFFFF" sketch:type="MSShapeGroup" x="136" y="58" width="27" height="28"></rect>
            <rect id="Rectangle-25-Copy-16" fill="#FFFFFF" sketch:type="MSShapeGroup" x="163" y="58" width="28" height="28"></rect>
            <rect id="Rectangle-25-Copy-15" fill="#FFFFFF" sketch:type="MSShapeGroup" x="82" y="58" width="27" height="28"></rect>
            <rect id="Rectangle-25-Copy-14" fill="#FFFFFF" sketch:type="MSShapeGroup" x="55" y="58" width="27" height="28"></rect>
            <rect id="Rectangle-25-Copy-13" fill="#FFFFFF" sketch:type="MSShapeGroup" x="28" y="58" width="27" height="28"></rect>
            <rect id="Rectangle-25-Copy-12" fill="#FFFFFF" sketch:type="MSShapeGroup" x="1" y="58" width="27" height="28"></rect>
            <rect id="Rectangle-25-Copy-25" fill="#FFFFFF" sketch:type="MSShapeGroup" x="109" y="86" width="27" height="29"></rect>
            <rect id="Rectangle-25-Copy-24" fill="#FFFFFF" sketch:type="MSShapeGroup" x="136" y="86" width="27" height="29"></rect>
            <rect id="Rectangle-25-Copy-23" fill="#FFFFFF" sketch:type="MSShapeGroup" x="163" y="86" width="28" height="29"></rect>
            <rect id="Rectangle-25-Copy-22" fill="#FFFFFF" sketch:type="MSShapeGroup" x="82" y="86" width="27" height="29"></rect>
            <rect id="Rectangle-25-Copy-21" fill="#FFFFFF" sketch:type="MSShapeGroup" x="55" y="86" width="27" height="29"></rect>
            <rect id="Rectangle-25-Copy-20" fill="#FFFFFF" sketch:type="MSShapeGroup" x="28" y="86" width="27" height="29"></rect>
            <rect id="Rectangle-25-Copy-19" fill="#FFFFFF" sketch:type="MSShapeGroup" x="1" y="86" width="27" height="29"></rect>
            <rect id="Rectangle-25-Copy-29" fill="#FFFFFF" sketch:type="MSShapeGroup" x="82" y="115" width="27" height="28"></rect>
            <rect id="Rectangle-25-Copy-32" fill="#FFFFFF" sketch:type="MSShapeGroup" x="109" y="115" width="27" height="28"></rect>
            <rect id="Rectangle-25-Copy-28" fill="#FFFFFF" sketch:type="MSShapeGroup" x="55" y="115" width="27" height="28"></rect>
            <rect id="Rectangle-25-Copy-27" fill="#FFFFFF" sketch:type="MSShapeGroup" x="28" y="115" width="27" height="28"></rect>
            <rect id="Rectangle-25-Copy-26" fill="#FFFFFF" sketch:type="MSShapeGroup" x="1" y="115" width="27" height="28"></rect>
            <circle id="Oval-2" fill="#3A4860" sketch:type="MSShapeGroup" cx="88" cy="35" r="2"></circle>
            <circle id="Oval-3" fill="#3A4860" sketch:type="MSShapeGroup" cx="115" cy="35" r="2"></circle>
            <circle id="Oval-4" fill="#3A4860" sketch:type="MSShapeGroup" cx="142" cy="35" r="2"></circle>
            <circle id="Oval-8" fill="#3A4860" sketch:type="MSShapeGroup" cx="169" cy="35" r="2"></circle>
            <circle id="Oval-7" fill="#3A4860" sketch:type="MSShapeGroup" cx="7" cy="35" r="2"></circle>
            <circle id="Oval-5" fill="#3A4860" sketch:type="MSShapeGroup" cx="34" cy="35" r="2"></circle>
            <circle id="Oval-6" fill="#3A4860" sketch:type="MSShapeGroup" cx="61" cy="35" r="2"></circle>
            <circle id="Oval-15" fill="#3A4860" sketch:type="MSShapeGroup" cx="88" cy="64" r="2"></circle>
            <circle id="Oval-9" fill="#3A4860" sketch:type="MSShapeGroup" cx="115" cy="64" r="2"></circle>
            <circle id="Oval-10" fill="#3A4860" sketch:type="MSShapeGroup" cx="142" cy="64" r="2"></circle>
            <circle id="Oval-11" fill="#3A4860" sketch:type="MSShapeGroup" cx="169" cy="64" r="2"></circle>
            <circle id="Oval-12" fill="#3A4860" sketch:type="MSShapeGroup" cx="7" cy="64" r="2"></circle>
            <circle id="Oval-13" fill="#3A4860" sketch:type="MSShapeGroup" cx="34" cy="64" r="2"></circle>
            <circle id="Oval-14" fill="#3A4860" sketch:type="MSShapeGroup" cx="61" cy="64" r="2"></circle>
            <circle id="Oval-22" fill="#3A4860" sketch:type="MSShapeGroup" cx="88" cy="92" r="2"></circle>
            <circle id="Oval-16" fill="#3A4860" sketch:type="MSShapeGroup" cx="115" cy="92" r="2"></circle>
            <circle id="Oval-17" fill="#3A4860" sketch:type="MSShapeGroup" cx="142" cy="92" r="2"></circle>
            <circle id="Oval-18" fill="#3A4860" sketch:type="MSShapeGroup" cx="169" cy="92" r="2"></circle>
            <circle id="Oval-19" fill="#3A4860" sketch:type="MSShapeGroup" cx="7" cy="92" r="2"></circle>
            <circle id="Oval-20" fill="#3A4860" sketch:type="MSShapeGroup" cx="34" cy="92" r="2"></circle>
            <circle id="Oval-21" fill="#3A4860" sketch:type="MSShapeGroup" cx="61" cy="92" r="2"></circle>
            <circle id="Oval-29" fill="#3A4860" sketch:type="MSShapeGroup" cx="88" cy="121" r="2"></circle>
            <circle id="Oval-26" fill="#3A4860" sketch:type="MSShapeGroup" cx="7" cy="121" r="2"></circle>
            <circle id="Oval-27" fill="#3A4860" sketch:type="MSShapeGroup" cx="34" cy="121" r="2"></circle>
            <circle id="Oval-28" fill="#3A4860" sketch:type="MSShapeGroup" cx="61" cy="121" r="2"></circle>
            <circle id="Oval-30" fill="#3A4860" sketch:type="MSShapeGroup" cx="115" cy="7" r="2"></circle>
            <circle id="Oval-30-Copy" fill="#3A4860" sketch:type="MSShapeGroup" cx="88" cy="7" r="2"></circle>
            <circle id="Oval-31" fill="#3A4860" sketch:type="MSShapeGroup" cx="142" cy="7" r="2"></circle>
            <circle id="Oval-32" fill="#3A4860" sketch:type="MSShapeGroup" cx="169" cy="7" r="2"></circle>
            <circle id="Oval-30-Copy-2" fill="#3A4860" sketch:type="MSShapeGroup" cx="61" cy="7" r="2"></circle>
            <circle id="Oval-29-Copy" fill="#3A4860" sketch:type="MSShapeGroup" cx="115" cy="121" r="2"></circle>
        </g>
    </g>
</svg>