<?xml version="1.0" encoding="UTF-8" standalone="no"?>
<svg width="192px" height="144px" viewBox="0 0 192 144" version="1.1" xmlns="http://www.w3.org/2000/svg" xmlns:xlink="http://www.w3.org/1999/xlink" xmlns:sketch="http://www.bohemiancoding.com/sketch/ns">
    <!-- Generator: Sketch 3.4.2 (15855) - http://www.bohemiancoding.com/sketch -->
    <title>forms</title>
    <desc>Created with Sketch.</desc>
    <defs></defs>
    <g id="Page-1" stroke="none" stroke-width="1" fill="none" fill-rule="evenodd" sketch:type="MSPage">
        <g id="forms" sketch:type="MSArtboardGroup" stroke="#3A4860" stroke-width="2">
            <g id="Group" sketch:type="MSLayerGroup" transform="translate(1.000000, 61.000000)">
                <rect id="Rectangle-353-Copy-2" fill="#FFFFFF" sketch:type="MSShapeGroup" x="0" y="0" width="88" height="64"></rect>
                <rect id="Rectangle-271-Copy-17" sketch:type="MSShapeGroup" x="8" y="27" width="33" height="10" rx="2"></rect>
                <rect id="Rectangle-271-Copy-23" sketch:type="MSShapeGroup" x="47" y="27" width="33" height="10" rx="2"></rect>
                <rect id="Rectangle-271-Copy-21" sketch:type="MSShapeGroup" x="8" y="9" width="52" height="10" rx="2"></rect>
                <rect id="Rectangle-271-Copy-22" sketch:type="MSShapeGroup" x="66" y="9" width="14" height="10" rx="2"></rect>
                <rect id="Rectangle-271-Copy-8" sketch:type="MSShapeGroup" x="8" y="45" width="72" height="10" rx="2"></rect>
            </g>
            <g id="Rectangle-353-+-Rectangle-271-Copy-20-+-Line-Copy-26" sketch:type="MSLayerGroup" transform="translate(52.000000, 19.000000)">
                <rect id="Rectangle-353" fill="#FFFFFF" sketch:type="MSShapeGroup" x="0" y="0" width="88" height="28"></rect>
                <path d="M8,10.999615 C8,9.89525812 8.89040614,9 9.99976472,9 L68.6582031,9 L77.9965958,9 C79.1030454,9 80,9.88743329 80,10.999615 L80,17.000385 C80,18.1047419 79.1026867,19 77.9991611,19 L10.0008389,19 C8.89580608,19 8,18.1125667 8,17.000385 L8,10.999615 Z" id="Rectangle-271-Copy-20" sketch:type="MSShapeGroup"></path>
                <path d="M8,10.999615 C8,9.89525812 8.89040614,9 9.99976472,9 L68.6582031,9 L77.9965958,9 C79.1030454,9 80,9.88743329 80,10.999615 L80,17.000385 C80,18.1047419 79.1026867,19 77.9991611,19 L10.0008389,19 C8.89580608,19 8,18.1125667 8,17.000385 L8,10.999615 Z" id="Rectangle-271-Copy-24" sketch:type="MSShapeGroup"></path>
                <path d="M57,10 L57,19" id="Line-Copy-26" stroke-linecap="square" sketch:type="MSShapeGroup"></path>
            </g>
            <g id="Group" sketch:type="MSLayerGroup" transform="translate(103.000000, 61.000000)">
                <rect id="Rectangle-353-Copy" fill="#FFFFFF" sketch:type="MSShapeGroup" x="0" y="0" width="88" height="64"></rect>
                <rect id="Rectangle-271-Copy-12" sketch:type="MSShapeGroup" x="8" y="9" width="72" height="10" rx="2"></rect>
                <rect id="Rectangle-271-Copy-5" sketch:type="MSShapeGroup" x="8" y="45" width="72" height="10" rx="2"></rect>
                <path d="M32,9 L32,18" id="Line-Copy-21" stroke-linecap="square" sketch:type="MSShapeGroup"></path>
                <path d="M22,46 L22,55" id="Line-Copy-25" stroke-linecap="square" sketch:type="MSShapeGroup"></path>
                <path d="M37,46 L37,55" id="Line-Copy-29" stroke-linecap="square" sketch:type="MSShapeGroup"></path>
                <path d="M57,9 L57,18" id="Line-Copy-22" stroke-linecap="square" sketch:type="MSShapeGroup"></path>
                <rect id="Rectangle-271-Copy-13" sketch:type="MSShapeGroup" x="8" y="27" width="72" height="10" rx="2"></rect>
                <path d="M44,27 L44,36" id="Line-Copy-28" stroke-linecap="square" sketch:type="MSShapeGroup"></path>
                <path d="M26,27 L26,36" id="Line-Copy-31" stroke-linecap="square" sketch:type="MSShapeGroup"></path>
                <path d="M62,27 L62,36" id="Line-Copy-32" stroke-linecap="square" sketch:type="MSShapeGroup"></path>
                <path d="M66,46 L66,55" id="Line-Copy-23" stroke-linecap="square" sketch:type="MSShapeGroup"></path>
                <path d="M51,46 L51,55" id="Line-Copy-30" stroke-linecap="square" sketch:type="MSShapeGroup"></path>
            </g>
        </g>
    </g>
</svg>