<?xml version="1.0" encoding="UTF-8" standalone="no"?>
<svg width="192px" height="144px" viewBox="0 0 192 144" version="1.1" xmlns="http://www.w3.org/2000/svg" xmlns:xlink="http://www.w3.org/1999/xlink" xmlns:sketch="http://www.bohemiancoding.com/sketch/ns">
    <!-- Generator: Sketch 3.4.2 (15855) - http://www.bohemiancoding.com/sketch -->
    <title>photo_gallery</title>
    <desc>Created with Sketch.</desc>
    <defs></defs>
    <g id="Page-1" stroke="none" stroke-width="1" fill="none" fill-rule="evenodd" sketch:type="MSPage">
        <g id="photo_gallery" sketch:type="MSArtboardGroup" stroke="#3A4860" stroke-width="2" fill="#FFFFFF">
            <rect id="Rectangle-25-Copy-27" sketch:type="MSShapeGroup" x="1" y="1" width="30" height="30"></rect>
            <rect id="Rectangle-25-Copy-28" sketch:type="MSShapeGroup" x="1" y="39" width="54" height="30"></rect>
            <rect id="Rectangle-25-Copy-31" sketch:type="MSShapeGroup" x="63" y="39" width="30" height="30"></rect>
            <rect id="Rectangle-25-Copy-32" sketch:type="MSShapeGroup" x="50" y="113" width="31" height="30"></rect>
            <rect id="Rectangle-25-Copy-29" sketch:type="MSShapeGroup" x="29" y="76" width="80" height="30"></rect>
            <rect id="Rectangle-25-Copy-37" sketch:type="MSShapeGroup" x="161" y="1" width="30" height="30"></rect>
            <path d="M145,76 L191,76 L191,90.1962891 L191,106 L145,106 L145,76 Z" id="Rectangle-25-Copy-41" sketch:type="MSShapeGroup"></path>
            <rect id="Rectangle-25-Copy-34" sketch:type="MSShapeGroup" x="39" y="1" width="41" height="30"></rect>
            <rect id="Rectangle-25-Copy-39" sketch:type="MSShapeGroup" x="1" y="113" width="41" height="30"></rect>
            <rect id="Rectangle-25-Copy-43" sketch:type="MSShapeGroup" x="89" y="113" width="74" height="30"></rect>
            <rect id="Rectangle-25-Copy-36" sketch:type="MSShapeGroup" x="116" y="1" width="37" height="30"></rect>
            <rect id="Rectangle-25-Copy-35" sketch:type="MSShapeGroup" x="88" y="1" width="20" height="30"></rect>
            <rect id="Rectangle-25-Copy-42" sketch:type="MSShapeGroup" x="171" y="113" width="20" height="30"></rect>
            <rect id="Rectangle-25-Copy-38" sketch:type="MSShapeGroup" x="1" y="76" width="20" height="30"></rect>
            <rect id="Rectangle-25-Copy-40" sketch:type="MSShapeGroup" x="117" y="76" width="20" height="30"></rect>
            <rect id="Rectangle-25-Copy-33" sketch:type="MSShapeGroup" x="101" y="39" width="90" height="30"></rect>
            <rect id="Rectangle-25-Copy-30" sketch:type="MSShapeGroup" x="6" y="6" width="20" height="20"></rect>
            <rect id="Rectangle-25-Copy-53" sketch:type="MSShapeGroup" x="6" y="44" width="44" height="20"></rect>
            <rect id="Rectangle-25-Copy-54" sketch:type="MSShapeGroup" x="106" y="44" width="80" height="20"></rect>
            <rect id="Rectangle-25-Copy-55" sketch:type="MSShapeGroup" x="150" y="81" width="36" height="20"></rect>
            <rect id="Rectangle-25-Copy-56" sketch:type="MSShapeGroup" x="34" y="81" width="70" height="20"></rect>
            <rect id="Rectangle-25-Copy-57" sketch:type="MSShapeGroup" x="6" y="118" width="31" height="20"></rect>
            <rect id="Rectangle-25-Copy-58" sketch:type="MSShapeGroup" x="94" y="118" width="64" height="20"></rect>
            <rect id="Rectangle-25-Copy-51" sketch:type="MSShapeGroup" x="68" y="44" width="20" height="20"></rect>
            <rect id="Rectangle-25-Copy-52" sketch:type="MSShapeGroup" x="55" y="118" width="21" height="20"></rect>
            <rect id="Rectangle-25-Copy-44" sketch:type="MSShapeGroup" x="44" y="6" width="31" height="20"></rect>
            <rect id="Rectangle-25-Copy-45" sketch:type="MSShapeGroup" x="93" y="6" width="10" height="20"></rect>
            <rect id="Rectangle-25-Copy-48" sketch:type="MSShapeGroup" x="122" y="81" width="10" height="20"></rect>
            <rect id="Rectangle-25-Copy-49" sketch:type="MSShapeGroup" x="6" y="81" width="9" height="20"></rect>
            <rect id="Rectangle-25-Copy-50" sketch:type="MSShapeGroup" x="176" y="118" width="10" height="20"></rect>
            <rect id="Rectangle-25-Copy-46" sketch:type="MSShapeGroup" x="121" y="6" width="27" height="20"></rect>
            <rect id="Rectangle-25-Copy-47" sketch:type="MSShapeGroup" x="166" y="6" width="20" height="20"></rect>
        </g>
    </g>
</svg>