<?xml version="1.0" encoding="UTF-8" standalone="no"?>
<svg width="120px" height="48px" viewBox="0 0 120 48" version="1.1" xmlns="http://www.w3.org/2000/svg" xmlns:xlink="http://www.w3.org/1999/xlink" xmlns:sketch="http://www.bohemiancoding.com/sketch/ns">
    <!-- Generator: Sketch 3.3.1 (12002) - http://www.bohemiancoding.com/sketch -->
    <title>slash</title>
    <desc>Created with Sketch.</desc>
    <defs></defs>
    <g id="Page-1" stroke="none" stroke-width="1" fill="none" fill-rule="evenodd" sketch:type="MSPage">
        <g id="slash" sketch:type="MSArtboardGroup" fill="#9C85F0">
            <path d="M50.3259404,32.2246183 C47.5542434,33.2719728 44.737234,34.318172 41.8748274,35.3632472 C39.0124209,36.4083224 36.15038,37.3820932 33.2886188,38.2845888 C30.4268577,39.1870844 27.861178,39.8237007 25.5915029,40.1944567 C25.046385,40.3708869 24.6484341,40.6044849 24.3976384,40.8952576 C24.1468426,41.1860304 23.8393848,41.4694334 23.4752558,41.7454754 C22.1592143,41.8787682 20.8880087,42.1320133 19.6616011,42.5052181 C18.4351935,42.8784229 17.2766741,43.288976 16.1860082,43.7368896 C15.0953422,44.1848031 14.0273159,44.6451613 12.9818972,45.1179778 C11.9364785,45.5907943 10.9141289,45.9810034 9.9148179,46.2886167 C9.1891414,46.2703822 8.39517574,46.3098458 7.5328971,46.4070086 C6.67061846,46.5041715 5.81966438,46.6075585 4.98000935,46.7171729 C4.14035432,46.8267872 3.31223863,46.8950997 2.49563745,46.9221124 C1.67903627,46.9491251 0.930962501,46.8709138 0.2513937,46.6874761 C-0.0170779574,45.8726871 -0.0705169509,45.1524345 0.091075116,44.5266967 C0.252667183,43.9009589 0.335182934,43.2078882 0.338624845,42.4474636 C1.43230246,41.3341786 2.92251627,40.29623 4.80931098,39.3335869 C6.69610569,38.3709438 8.741235,37.4954741 10.9447603,36.7071514 C13.1482855,35.9188288 15.3513475,35.2255696 17.5540123,34.6273531 C19.7566771,34.0291366 21.6980656,33.5253685 23.3782361,33.1160337 C25.1497616,32.5663986 26.9212605,32.0167717 28.692786,31.4671367 C30.4643114,30.9175016 32.463011,30.2785213 34.6889448,29.5501766 C36.9148785,28.821832 39.1862406,28.070875 41.503099,27.2972831 C43.8199574,26.5236912 45.8869571,25.8270131 47.70416,25.2072279 C49.3408043,24.3927779 51.8285932,23.4274273 55.1676014,22.311147 C58.5066096,21.1948668 61.9931568,20.040722 65.6273475,18.8486781 C69.2615382,17.6566342 72.645958,16.5177474 75.7807083,15.4319836 C78.9154586,14.3462198 81.0287804,13.4368151 82.1207371,12.7037423 C84.300348,12.1881274 87.2075279,11.2630221 90.842364,9.92839856 C94.4772001,8.59377503 98.179959,7.27276245 101.950752,5.96532116 C105.721545,4.65787987 109.264543,3.5586262 112.579852,2.66752716 C115.89516,1.77642811 118.368519,1.49397624 120,1.82016307 C118.584859,3.80471142 116.682479,5.71163088 114.292802,7.54097866 C111.903125,9.37032643 108.820892,11.3901927 105.046012,13.6006382 C103.546831,14.1095847 101.525293,14.7836395 98.9813376,15.6228229 C96.4373826,16.4620063 93.5868685,17.3944769 90.4297096,18.4202627 C87.2725508,19.4460485 84.0132044,20.5108398 80.6515726,21.6146686 C77.2899408,22.7184974 74.0759485,23.7844284 71.0094992,24.8124935 C67.94305,25.8405586 65.2285981,26.7764481 62.8660622,27.6201902 C60.5035263,28.4639322 58.7541129,29.1448249 57.6177695,29.6628886 C55.5282228,30.3233624 53.0976374,31.1772638 50.3259404,32.2246183 Z" id="|-copy" sketch:type="MSShapeGroup"></path>
        </g>
    </g>
</svg>
